<?xml version="1.0" standalone="no"?>
<!DOCTYPE svg PUBLIC "-//W3C//DTD SVG 20010904//EN"
 "http://www.w3.org/TR/2001/REC-SVG-20010904/DTD/svg10.dtd">
<svg version="1.0" xmlns="http://www.w3.org/2000/svg"
 width="44.000000pt" height="44.000000pt" viewBox="0 0 44.000000 44.000000"
 preserveAspectRatio="xMidYMid meet">

<g transform="translate(0.000000,44.000000) scale(0.100000,-0.100000)"
fill="#000000" stroke="none">
<path d="M0 220 l0 -220 220 0 220 0 0 220 0 220 -220 0 -220 0 0 -220z m393
109 c29 -16 37 -28 37 -61 0 -37 -32 -68 -70 -68 -30 0 -30 -1 -30 -55 0 -52
-1 -55 -25 -55 l-25 0 0 105 c0 98 1 105 20 105 11 0 20 5 20 10 0 6 -9 10
-21 10 -11 0 -17 5 -14 10 8 14 81 13 108 -1z"/>
<path d="M330 265 c0 -24 5 -35 14 -35 15 0 46 26 46 39 0 13 -24 31 -42 31
-14 0 -18 -8 -18 -35z"/>
</g>
</svg>
