<svg width="400" height="400" viewBox="0 0 400 400" xmlns="http://www.w3.org/2000/svg"><g fill-rule="evenodd"><path d="M283.3 87.5c11.165.059 29.435.059 40.6 0 11.165-.059 2.03-.107-20.3-.107-22.33 0-31.465.048-20.3.107m75.1 6.377c0 1.874.402 2.156 2.933 2.059 1.349-.052 1.434-.094.444-.22-.911-.115-1.499-.58-2.3-1.816l-1.077-1.66v1.637m5.505 2.406c.497.096 1.217.092 1.6-.008.382-.1-.025-.179-.905-.174-.88.004-1.193.086-.695.182M386 115.191c0 .329 1.983.96 2.232.71.076-.075-.396-.338-1.047-.584-.652-.246-1.185-.303-1.185-.126m6.17 5.209c.097 1.21.527 2.92.956 3.8.952 1.954 1.533 4.609 1.903 8.7l.281 3.1H400v-7.6h-4.61l-.747-2.609c-.411-1.434-.904-2.705-1.095-2.823-.191-.118-.356-.7-.366-1.292-.01-.592-.281-1.616-.603-2.276-.575-1.181-.582-1.165-.409 1m-108.77 1.231c-1.54.412-2.965.753-3.167.758-1.199.035.611.622 3.136 1.018 3.856.605 5.414-.235 3.531-1.903-.634-.561-.965-.549-3.5.127m3.135 1.138c-.184.154-1.415.184-2.735.067l-2.4-.214 2.4-.217c2.487-.225 3.31-.115 2.735.364m25.671 8.418l-7.993.213-.315 1.6c-.537 2.737-.46 44.75.084 45.767.527.983 12.662.968 22.618-.03 6.033-.604 6.689-.914 7.343-3.467.655-2.553 2.395-4.183 5.178-4.851 2.352-.564 2.608-1.011 3.286-5.715.246-1.703.605-3.649.799-4.324.375-1.31-.714-10.627-1.735-14.843-1.026-4.233-1.77-4.67-11.816-6.939-3.512-.793-4.406-1.714-5.035-5.178-.349-1.927-1.178-2.618-3.02-2.52-.77.041-4.997.17-9.394.287m11.011 1.913c.022 1.876 1.485 4.482 3.018 5.374 1.057.616 2.027.907 6.631 1.993 1.329.313 1.492.502 1.748 2.019.343 2.026 2.829 4.702 4.731 5.089 2.084.425 2.355 1.557 2.34 9.782-.015 8.639-.346 11.171-1.489 11.378-3.917.712-8.196 4.729-8.196 7.693 0 .378-.315.817-.7.976-1.176.485-26.493.763-26.961.295-.268-.268-.313-1.947-.127-4.814l.286-4.402 2.798.978c3.42 1.195 3.437 1.18 2.086-1.83-1.274-2.839-1.016-2.735-3.171-1.281l-1.704 1.151-.171-13.451c-.093-7.397-.1-14.395-.014-15.55l.155-2.1 2.062-.002c2.786-.003 6.826-.694 6.994-1.196.074-.224.308-.3.519-.17.211.13.6.066.866-.142.265-.209.967-.496 1.561-.637.598-.143 1.394-.791 1.786-1.455.644-1.09.898-1.198 2.821-1.198h2.114l.017 1.5m-72.348 41.267c-.038 18.791.039 34.059.171 33.927.363-.364.494-41.193.177-55.494-.215-9.725-.295-4.805-.348 21.567M394.244 185.3c-1.283 6.568-2.165 8.899-3.621 9.562-.771.352-1.023.766-1.023 1.684v1.217l.7-.929a25.998 25.998 0 0 1 1.383-1.665c1.268-1.365 2.236-3.767 2.933-7.277l.693-3.492H400v-4.8h-4.642l-1.114 5.7m-8.011 14.157c-.364.949-.156.974.911.109.887-.719.895-.766.143-.766-.441 0-.915.296-1.054.657m-12.106 13.303c-1.958.854-2.394 1.2-2.093 1.659.329.502.449.493.875-.061.272-.352 1.258-1.031 2.192-1.508.935-.476 1.699-.953 1.699-1.058 0-.106-.045-.174-.1-.152-.055.022-1.213.526-2.573 1.12m-70.149 16.884c-.527 1.883-.577 7.591-.391 45.156l.213 43 .261-27.2c.144-14.96.231-34.458.194-43.329-.037-8.871.026-16.271.139-16.444.113-.174 5.156-.453 11.206-.619 6.05-.167 12.8-.434 15-.594l4-.291-3.4-.134c-1.87-.074-4.39-.093-5.6-.041-1.21.051-4.27-.191-6.8-.539-2.53-.348-6.764-.742-9.409-.877l-4.809-.245-.604 2.157M250.8 274c0 23.173.089 42.044.198 41.935.303-.302.367-83.503.066-83.805-.145-.145-.264 18.697-.264 41.87m25.705 55.487c.609.092 1.509.09 2-.005.492-.095-.005-.171-1.105-.168-1.1.003-1.503.081-.895.173" fill="#4f1a4d"/><path d="M275.536 79.796c-.075.074-3.069.19-6.655.258-6.473.123-10.713 1.078-10.372 2.335.05.185-.599 1.269-1.442 2.408s-1.471 2.132-1.396 2.207c.075.075 22.815.203 50.533.283 27.718.08 50.718.295 51.111.478.96.446 1.938 2.886 1.637 4.086-.747 2.973 2.797 4.444 11.075 4.596 5.228.096 6.051.82 6.188 5.446.099 3.31.396 3.59 3.997 3.772 4.193.211 4.952.996 5.341 5.525.332 3.853.871 4.543 3.255 4.162 2.273-.363 4.08.724 3.943 2.373-.13 1.567.337 4.068 1.063 5.692.3.669.771 2.064 1.048 3.1l.504 1.883H400v-14.8h-2.6c-2.277 0-2.6-.093-2.6-.751 0-.413-.264-.97-.587-1.238-.323-.268-.559-.605-.524-.749.344-1.432-4.192-6.854-5.951-7.112-.717-.105-1.826-.996-1.565-1.256.411-.411-2-2.995-4.721-5.062-1.569-1.191-3.885-3.153-5.147-4.359-2.168-2.073-7.099-4.673-8.863-4.673-1.244 0-4.465-1.327-7.018-2.892-6.125-3.754-8.259-4.569-12.838-4.903l-5.786-.425c-3.391-.249-66.033-.612-66.264-.384m-26.224 14.707c-.528 1.084-.982 3.214-1.256 5.897l-.428 4.2 1.386 1.393 1.386 1.394.051-4.594c.061-5.52-.018-9.694-.188-9.863-.068-.069-.496.639-.951 1.573m34.488 27.902l-2.4.217 2.4.214c1.32.117 2.551.087 2.735-.067.575-.479-.248-.589-2.735-.364m34.465 10.393c-.392.664-1.188 1.312-1.786 1.455-.594.141-1.296.428-1.561.637-.266.208-.655.272-.866.142-.211-.13-.445-.054-.519.17-.168.502-4.208 1.193-6.994 1.196l-2.062.002-.155 2.1c-.086 1.155-.079 8.153.014 15.55l.171 13.451 1.704-1.151c2.155-1.454 1.897-1.558 3.171 1.281 1.351 3.01 1.334 3.025-2.086 1.83l-2.798-.978-.286 4.402c-.186 2.867-.141 4.546.127 4.814.468.468 25.785.19 26.961-.295.385-.159.7-.598.7-.976 0-2.964 4.279-6.981 8.196-7.693 1.143-.207 1.474-2.739 1.489-11.378.015-8.225-.256-9.357-2.34-9.782-1.902-.387-4.388-3.063-4.731-5.089-.256-1.517-.419-1.706-1.748-2.019-4.604-1.086-5.574-1.377-6.631-1.993-1.533-.892-2.996-3.498-3.018-5.374l-.017-1.5h-2.114c-1.923 0-2.177.108-2.821 1.198m-69.303 3.278c-5.042 5.395-5.039 5.376-4.982 35.762.033 17.621-.084 25.177-.405 26-1.521 3.907-1.161 6.683 1.187 9.162 2.454 2.591 3.977 5.052 4.568 7.386l.554 2.186.312-1.386c.415-1.843.708-75.131.313-78.11l-.309-2.324-1.238 1.324m76.838 10.631c1.627.837 1.833.922 4.999 2.085 1.877.689 2.096.977 3.607 4.757 1.904 4.764.616 9.386-3.108 11.16-.853.406-2.044 1.546-2.884 2.762-2.953 4.272-4.477 4.832-9.503 3.495-3.931-1.046-7.657-2.705-6.994-3.115.201-.124.467-1.56.59-3.192.123-1.631.51-3.518.859-4.193.474-.918.634-2.422.634-5.98v-4.753l2.1-1.434c4.662-3.182 6.405-3.93 7.3-3.13.44.393 1.52 1.085 2.4 1.538m68.824 41.146c-.663 3.338-2.06 6.947-2.69 6.947-.789 0-1.194 1.67-.572 2.358.486.537.542.983.25 2-.343 1.197-.317 1.265.306.795.586-.442.609-.433.163.065-.711.795-3.319.85-4.173.089-.774-.69-1.908-.122-1.908.955 0 .31-.3 1.233-.668 2.051-.452 1.008-.678 2.646-.7 5.087l-.032 3.6-3.8.009c-4.732.012-8.805 1.739-7.581 3.214.206.248.432.982.503 1.632.071.65.264 1.398.427 1.663.164.265.153.494-.025.509-.178.014.444.266 1.384.56 2.012.628 4.085-.123 6.427-2.329 1.548-1.459 3.134-4.258 2.411-4.258-.274 0-.164-.338.263-.809.439-.486.833-.646.985-.401.632 1.023 5.818-3.502 5.948-5.19.026-.33.114-1.666.197-2.968.175-2.755.039-2.682 4.961-2.628l3.3.037V184.4h-4.691l-.685 3.453m-28.382 33.202c-.857.309-3.667.735-6.245.945-5.359.438-6.217.653-5.595 1.402.232.28.504 1.293.604 2.251.099.959.365 1.804.59 1.879.225.075.313.292.195.482-.284.46 2.328.93 3.712.668 3.636-.689 7.933-2.313 7.435-2.81-.137-.137.209-.424.768-.636.559-.213 1.142-.59 1.296-.839a.663.663 0 0 1 .767-.264c.268.103 1.195-.418 2.059-1.158.865-.74 1.334-1.352 1.043-1.36-.29-.008-.798-.285-1.128-.615-.741-.741-3.366-.715-5.501.055m-117.031 6.066c-.294.814-1.023 2.109-1.619 2.879-1.021 1.317-1.535 2.567-3.048 7.4-.344 1.1-.805 2.219-1.023 2.487-.488.597-.478 2.566.05 10.343.225 3.317.424 18.797.442 34.4.039 34.247.35 38.213 3.08 39.261.276.106.403.354.281.551-.122.197.027.358.33.358.304 0 .943.45 1.421 1 1.017 1.17 1.669 1.285 1.69.3.009-.385.007-21.76-.003-47.5-.022-52.526-.117-55.586-1.601-51.479M322 230.04c-3.41.14-8.765.278-11.9.307-3.135.029-5.711.188-5.724.353-.069.878-.467 87.484-.421 91.778.078 7.25.165 7.385 2.971 4.578 5.747-5.746 6.846-11.314 7.393-37.456.253-12.075.052-41.19-.278-40.2-.142.426-.421-.637-1.405-5.354-.701-3.359-.656-3.511 1.272-4.317 4.979-2.08 8.086-2.61 15.892-2.712 7.151-.093 12.173-.587 14-1.377 2.755-1.19 4.843-2.308 5.12-2.74.176-.275.641-.5 1.033-.5.393 0 .838-.125.991-.277.152-.152.663-.336 1.135-.408 1.553-.237 2.134-1.018 1.056-1.42-1.148-.428-22.642-.604-31.135-.255m-53 99.973c-1.98.166-5.803.4-8.495.518-6.002.264-6.241.394-3.825 2.083 1.056.738 2.105 1.486 2.331 1.664 2.482 1.946 4.584 2.256 14.641 2.156 5.533-.055 9.677.078 10.66.342 1.075.29 2.249.308 3.547.055 1.068-.207 3.423-.591 5.235-.852 1.812-.261 3.196-.634 3.076-.828-.12-.194.287-.545.904-.779.617-.235 1.739-.897 2.493-1.472.753-.575 1.224-.787 1.045-.473-.2.353-.043.307.408-.117 1.147-1.082.607-1.217-6.306-1.575-3.57-.184-8.386-.515-10.702-.735-4.696-.445-9.617-.441-15.012.013" fill="#570656"/><path d="M303.873 131.119c-.594.656-.72 1.848-.859 8.125l-.164 7.356.38-5.6c.209-3.08.513-6.5.677-7.6l.297-2 2.998-.228c2.483-.189 2.655-.241.998-.305-1.1-.043-2.367-.177-2.816-.297-.512-.138-1.074.066-1.511.549m91.191 14.781c-.335 8.065-.335 18.329-.002 26.036l.263 6.064H400v-38.4h-4.675l-.261 6.3m-92.239 25.084l-.52 6.584 1.065 1.816c.585.999 1.101 1.812 1.147 1.808 1.241-.117 6.402-1.178 6.575-1.351.133-.132-1.314-.241-3.215-.241-4.701 0-4.718-.033-4.394-8.739.31-8.321.005-8.264-.658.123m1.04 55.289c-1.327 4.146-1.454 5.165-1.2 9.627.141 2.475.427 4.5.634 4.5.231 0 .268-1.608.097-4.129-.233-3.412-.158-4.523.434-6.4l.716-2.271 2.827-.014c4.733-.024 5.458-.881 1.576-1.865-1.732-.438-3.445-.927-3.808-1.086-.525-.23-.784.103-1.276 1.638" fill="#4c2e4d"/><path d="M262.17 87.531c-5.318.906-8.528 2.921-9.538 5.988-.696 2.111-1.478 10.038-1.173 11.881.597 3.601 1.031 5.4 1.302 5.4.167 0 .057-1.125-.245-2.5-.584-2.66-.393-11.138.304-13.571.596-2.077 2.072-3.85 4.18-5.019l2-1.11 41.4-.117c53.596-.151 54.016-.105 56.646 6.168.596 1.423.896 1.584 3.603 1.944 8.879 1.178 12.17 2.733 13.576 6.415.763 1.997 2.285 3.303 5.056 4.339 2.073.775 4.165 2.863 4.566 4.558.142.601.684 2.043 1.205 3.205.522 1.161.948 2.282.948 2.49 0 .207.519.646 1.152.973 1.214.628 3.248 2.809 3.248 3.482 0 .218.451.988 1.002 1.71 1.429 1.874 2.508 5.488 3.007 10.07.675 6.206.429 5.763 3.199 5.763H400V136h-4.69l-.281-3.1c-.37-4.091-.951-6.746-1.903-8.7-.429-.88-.881-2.59-1.004-3.8-.242-2.383-1.848-4.391-3.522-4.405-2.102-.016-2.548-.416-3.024-2.713-.918-4.42-4.084-7.682-7.456-7.682-1.43 0-2.119-.644-2.122-1.98-.008-4.073-4.698-6.873-12.398-7.403-5.268-.362-5.2-.33-5.2-2.497 0-2.438-1.327-3.608-5.941-5.241-1.695-.599-87.072-1.496-90.289-.948m20.43 33.148c-2.704.672-11.739.752-18.4.164-3.671-.325-5.689-.116-4.713.487.214.132 2.622.343 5.351.469 13.114.605 13.639 1.274 1.062 1.354-5.215.033-7.5.183-7.5.492 0 .295.575.365 1.7.207 3.194-.448 20.031-.387 21.9.079 5.2 1.298 7.828-.446 4.974-3.3-.746-.746-1.203-.741-4.374.048m5 1.963c0 1.011-1.239 1.235-4.231.765-2.525-.396-4.335-.983-3.136-1.018.202-.005 1.627-.346 3.167-.758 2.924-.78 4.2-.473 4.2 1.011M251.675 133.1c-.034 2.365-.203 4.84-.376 5.5-.172.66-.197 6.96-.056 14 .199 9.917.093 44.075-.179 57.4-.02.99.011 5.58.069 10.2.138 10.915.171 20.219.224 63.114.028 23.169.182 35.614.443 35.8.22.157.754.981 1.187 1.831 1.417 2.78 4.957 6.042 7.213 6.645 1.1.294 2.18.66 2.4.814 2.378 1.666 26.358 1.604 31.8-.082 4.046-1.253 4.351-1.485 7.458-5.666l1.742-2.344v-40.023c0-22.012-.135-39.887-.3-39.723-.165.165-.39 17.79-.5 39.167l-.2 38.867-.922 1.8c-1.347 2.628-2.888 4.636-4.478 5.832l-1.4 1.054-10-.168c-5.5-.093-11.71-.067-13.8.057-14.964.887-20.849-4.726-19.891-18.975.194-2.882.219-22.589.058-44.2-.161-21.45-.265-42.15-.232-46 .254-29.807.309-89.2.082-89.2-.153 0-.308 1.935-.342 4.3m64.125-2.472l-6 .507 6.616-.124c7.435-.138 7.76-.043 8.204 2.409.629 3.464 1.523 4.385 5.035 5.178 10.046 2.269 10.79 2.706 11.816 6.939 1.021 4.216 2.11 13.533 1.735 14.843-.194.675-.553 2.621-.799 4.324-.678 4.704-.934 5.151-3.286 5.715-2.771.665-4.524 2.299-5.17 4.823-.779 3.038-4.33 3.908-16.151 3.958-4.331.018-6.194.173-6.698.556-1.081.82 9.557.832 14.698.017 2.2-.349 4.54-.711 5.2-.805 1.843-.262 3.719-1.599 4.345-3.099.712-1.704 1.95-2.882 4.28-4.073 2.05-1.049 2.943-2.625 3.387-5.98.144-1.091.652-3.071 1.129-4.4.791-2.205.825-2.643.383-5.016-1.346-7.239-3.134-14.636-3.608-14.925-.293-.178-.411-.521-.263-.761.149-.241.098-.331-.112-.201-.211.13-1.544-.167-2.962-.661a100.035 100.035 0 0 0-5.179-1.615c-4.052-1.118-6.8-3.403-6.8-5.655 0-.559-2.883-2.641-3.492-2.521-.169.033-3.008.288-6.308.567m-12.972 24.048c.016 4.578.183 8.684.372 9.124.206.48.355-2.747.372-8.076.017-5.518-.123-8.97-.372-9.124-.262-.162-.39 2.622-.372 8.076m92.311 23.624l-.139.7c-.042.22-.188.67-.324 1-.136.33-.812 2.76-1.502 5.4-1.634 6.252-2.864 8.141-6.096 9.37-.709.27-1.053.87-1.427 2.493-.79 3.427-1.842 5.039-6.251 9.577-3.533 3.636-5.602 5.067-8.63 5.969-2.074.618-2.789 1.023-3.004 1.701-1.215 3.845-4.654 5.293-19.238 8.097-.7.134-1.51.531-1.8.88-2.458 2.963-13.258 4.183-28.128 3.179-5.225-.353-6.155-.323-7.199.228l-1.2.632 1.4.222c4.224.669 12.491 1.478 14.399 1.41 1.21-.044 4.72-.035 7.8.02 5.796.102 12.934-1.508 15.01-3.387.359-.325.866-.591 1.127-.591.593 0 1.971-.779 3.035-1.715.446-.394 1.176-.787 1.62-.873 7.363-1.43 10.547-2.506 13.567-4.584.982-.675 1.933-1.234 2.113-1.241.933-.038 2.168-1.586 1.796-2.251-.332-.594.076-.89 2.911-2.113 3.963-1.71 5.919-3.005 6.806-4.505.363-.615.83-1.118 1.038-1.118.207 0 .377-.199.377-.442s.538-1.239 1.196-2.214c.658-.975 1.304-2.261 1.437-2.858.523-2.356.613-2.486 1.714-2.486 1.431 0 2.053-.671 2.053-2.216 0-.959.242-1.366 1.023-1.722 1.456-.663 2.338-2.994 3.621-9.562l1.114-5.7h2.321c2.054 0 2.321-.092 2.321-.8 0-.811-4.7-1.294-4.861-.5m-149.693 41.5c.142.66.434 1.38.651 1.6.258.263.292.057.1-.6-.474-1.615-1.046-2.377-.751-1" fill="#642764"/><path d="M268 69.676c0 .192-.385.492-.856.666-1.621.6-9.048 7.658-8.057 7.658.158 0-.193.386-.78.858l-1.067.859 1.012.795c.913.718 1.173.747 2.68.29.917-.279 2.568-.594 3.668-.7 3.236-.314 70.751-.287 76 .03 12.1.731 12.361.801 19.824 5.376 2.553 1.565 5.774 2.892 7.018 2.892 1.764 0 6.695 2.6 8.863 4.673 1.262 1.206 3.577 3.167 5.143 4.356 1.566 1.19 3.073 2.435 3.349 2.767.275.332.851.604 1.278.604 1.738 0 3.925 1.89 3.925 3.391 0 .478.441 1.284.98 1.79.85.799 2.731 4.093 2.797 4.899.013.154.248.505.523.78s.5.824.5 1.22c0 .619.363.72 2.6.72h2.6v-12.055l-2.634.095c-1.777.065-2.736-.068-2.946-.408-.172-.277-.666-.713-1.098-.968-2.081-1.228-3.201-2.1-3.163-2.464.022-.22-.364-.458-.859-.528s-.9-.385-.9-.7c0-.315-.234-.572-.52-.572-.285 0-.96-.716-1.5-1.591-.539-.876-1.204-1.512-1.477-1.414-.273.098-.773-.356-1.11-1.009-.338-.652-.801-1.186-1.03-1.186-.229 0-.989-.427-1.69-.95-.7-.522-2.227-1.26-3.394-1.639-1.166-.379-2.444-1.036-2.839-1.46-.395-.425-2.321-1.418-4.279-2.209-1.959-.79-3.921-1.754-4.361-2.142-.789-.695-5.169-2.4-6.166-2.4-.282 0-1.08-.251-1.774-.557a28.46 28.46 0 0 0-1.985-.797c-.399-.132-.614-.422-.477-.643.137-.222-.09-.403-.505-.403-.414 0-1.19-.467-1.723-1.038-1.269-1.358-3.707-2.774-6.402-3.717-1.192-.418-2.707-1.045-3.366-1.395-1.516-.806-4.042-1.292-9.637-1.855-5.319-.536-66.165-.461-66.165.081m-15.479 17.508c-1.826.779-2.055 2.031-2.092 11.435-.034 8.931.246 14.181.758 14.181.933 0 1.191-2.148.639-5.317-.66-3.783-.258-10.74.805-13.964 1.026-3.111 3.419-4.621 9.569-6.041.44-.102-.57-.206-2.244-.232-1.674-.025-3.834-.134-4.8-.242-.966-.108-2.152-.027-2.635.18m95.926.185c.135.141 1.395.545 2.8.897 3.055.765 5.158 1.775 6.508 3.125.912.913 1.015.935 1.227.267.317-1-.809-3.555-1.675-3.8-1.159-.329-9.128-.769-8.86-.489m21.125 9.666c2.424.761 4.574 2.327 5.465 3.982.995 1.847 1.485 1.747 1.206-.247-.514-3.677-1.348-4.268-6.043-4.283l-2.4-.008 1.772.556m11.094 9.173c1.968 1.024 3.676 3.126 4.708 5.792.127.33.15-.466.051-1.769-.235-3.074-1.293-4.24-4.078-4.5l-1.947-.182 1.266.659m7.734 9.392c0 .22.225.4.5.401.275 0 1.13.54 1.9 1.199 1.702 1.456 2 1.488 2 .21 0-.691-.356-1.173-1.18-1.6-1.335-.69-3.22-.813-3.22-.21m-129.3 6.424c-1.646.977-.459 1.174 6.8 1.129 8.562-.054 11.749-.456 6.9-.87-6.389-.546-13.006-.671-13.7-.259m-11.142 7.676c-.937.715-2.378 2.272-3.201 3.459-.823 1.188-2.234 2.988-3.135 4-1.964 2.208-1.383 2.647 1.425 1.077 1.509-.843 1.784-.902 1.548-.331-.158.382-.614 1.595-1.014 2.695-1.284 3.529-1.908 4.754-3.565 7-.893 1.21-2.082 3.19-2.642 4.4a144.406 144.406 0 0 1-2.393 4.853l-1.375 2.652-.22 7.148c-.121 3.931-.398 8.981-.617 11.223-.648 6.645-.595 10.607.157 11.755.359.548.822 2.192 1.029 3.653.244 1.723.74 3.193 1.411 4.18.569.837 1.034 1.821 1.034 2.186s.267.767.593.892c.339.13.492.493.357.845-.168.437.188.795 1.222 1.227.803.336 1.352.785 1.221.998-.135.218.29.388.969.388 1.375 0 2.038-.887 2.038-2.723 0-.647.276-1.959.613-2.915.528-1.496.608-5.202.572-26.55-.029-17.241.097-25.445.414-26.887.346-1.571.343-2.287-.013-2.95-.452-.847-.049-1.549.901-1.569.651-.014 3.409-4.317 3.674-5.732.282-1.51-.692-1.68-1.562-.272a.931.931 0 0 1-.723.392c-.299-.004-.327-.115-.076-.3.22-.162.454-.744.52-1.294.126-1.055 2.374-3.313 2.945-2.96.184.114.353 1.862.375 3.884.08 7.361 1.102 6.499 1.261-1.065.065-3.076-.025-3.614-.689-4.1-1.038-.759-1.111-.741-3.054.741m72.442 15.96a62.733 62.733 0 0 0-4.3 2.639l-2.1 1.434v4.753c0 3.653-.154 5.05-.665 6.034-1.284 2.47-.996 7.87.465 8.72 6.176 3.598 11.335 2.973 14.614-1.769.84-1.216 2.031-2.356 2.884-2.762 3.724-1.774 5.012-6.396 3.108-11.16-1.511-3.78-1.73-4.068-3.607-4.757-3.166-1.163-3.372-1.248-4.999-2.085-.88-.453-1.96-1.145-2.4-1.538-.773-.691-.874-.675-3 .491m69.456 51.738c-.126.328-.776.93-1.444 1.336-1.144.696-1.174.776-.514 1.364.864.77 3.467.72 4.183-.08.446-.498.423-.507-.163-.065-.622.47-.649.402-.308-.788.528-1.842-1.097-3.479-1.754-1.767m3.546 3.332c-.071.072-.44.176-.82.232-.546.08-.724.6-.843 2.47a369.555 369.555 0 0 1-.197 2.968c-.13 1.688-5.316 6.213-5.948 5.19-.152-.245-.546-.085-.985.401-.427.471-.537.809-.263.809 1.657 0-2.639 4.99-5.438 6.318-1.647.78-5.008.481-4.931-.439a1.592 1.592 0 0 0-.004-.379 44.076 44.076 0 0 1-.206-1.486c-.26-2.014-.735-2.262-2.03-1.061-.621.576-1.26 1.047-1.419 1.047-.16 0-1.404.719-2.764 1.598-1.36.879-3.481 1.893-4.713 2.253-4.25 1.241-4.375 1.365-1.168 1.16 1.69-.108 3.85-.467 4.8-.798 2.216-.772 4.505-.777 5.27-.013.33.33.824.6 1.098.6.303 0 .176.354-.322.9-.451.495-1.14 1.59-1.531 2.433-.799 1.725-1.878 2.284-4.319 2.242-.918-.016-2.659.271-3.869.636-3.772 1.14-7.657 1.253-7.009.203.118-.19.03-.407-.195-.482-.225-.075-.492-.935-.594-1.911-.244-2.348-.952-3.085-2.042-2.126-1.054.928-2.432 1.705-3.023 1.705-.261 0-.768.266-1.127.591-1.023.926-9.06 3.409-11.033 3.409-1.062 0-1.777.183-1.777.455 0 .332 2.096.404 7.7.264 8.206-.205 11.052.159 9.742 1.246-.353.293-.66 1.096-.682 1.784-.101 3.16-1.83 5.181-3.61 4.22-2.194-1.185-4.818-1.477-7.953-.888-1.714.323-6.422.624-10.997.703-8.22.142-11.308.663-16.292 2.745-1.928.806-1.973.958-1.272 4.317.984 4.717 1.263 5.78 1.405 5.354.33-.99.531 28.125.278 40.2-.547 26.142-1.646 31.71-7.393 37.456-2.764 2.764-2.964 2.524-2.99-3.594l-.017-3.94-.809 1.339c-1.709 2.829-4.518 5.91-5.897 6.465-3.501 1.41-8.106 2.226-13.142 2.329l-2.671.054 3.4.336c1.87.185 6.326.492 9.902.681 7.37.391 7.469.427 5.869 2.124-2.005 2.126-10.404 4.399-14.771 3.998-.66-.061-5.7-.167-11.2-.236-5.5-.069-10.81-.321-11.8-.559-.99-.238-2.808-.438-4.04-.443-2.98-.013-4.655-.648-5.372-2.034-.809-1.564-.74-1.976.332-1.976.506 0 1.111-.191 1.344-.424.233-.233 2.654-.522 5.38-.642s6.576-.355 8.556-.521l3.6-.303-2.923-.055c-2.801-.053-6.233-.659-7.077-1.251-.22-.154-1.3-.52-2.4-.814-2.256-.603-5.796-3.865-7.213-6.645-.433-.85-.896-1.635-1.029-1.745-.134-.11-.437-.92-.675-1.8-.362-1.338-.412-.823-.308 3.149.192 7.321-1.26 9.031-3.672 4.327a238.102 238.102 0 0 0-1.689-3.212c-1.423-2.649-1.566-5.958-1.601-37.034-.018-15.603-.215-31.083-.438-34.4-.577-8.568-.561-9.234.26-10.92.454-.93.797-2.701.893-4.61.132-2.609.266-3.1.847-3.1.874 0 2.935-2.539 3.636-4.479.667-1.846 1.18-1.592 1.217.603.039 2.297.687 3.843.787 1.876.192-3.786-.131-17.834-.427-18.565-.269-.667-.343-.513-.367.765-.016.88-.146 2.305-.288 3.166l-.259 1.566-.549-2.166c-1.441-5.688-9.125-12.578-9.125-8.182 0 .633-.439.871-2.293 1.243-7.388 1.48-7.01 3.026.975 3.986 2.263.272 2.294.294 3.878 2.731 4.628 7.116 4.682 8.914.421 14.201-2.386 2.962-2.381 2.928-.381 2.609 1.938-.31 2.094.365.776 3.368-1.795 4.09-2.722 5.486-4.196 6.319-.946.536-4.678 5.744-5.701 7.959-.695 1.503-.737 3.019-.689 25 .066 30.347.842 38.949 4.067 45.138.762 1.461 1.304 2.967 1.205 3.347-.113.433.264 1.03 1.013 1.602 1.693 1.295 2.229 1.826 2.424 2.406.135.401.31.392.836-.042.569-.469.665-.462.665.053 0 .808 3.007 3.773 4.777 4.708.783.414 1.297.761 1.144.77-.413.026.495 2.418.918 2.418.199 0 .368-.225.376-.5.008-.275.593.159 1.3.965.707.806 1.915 1.84 2.685 2.298.77.459 1.175.835.9.836-.275 0-.5.181-.5.401 0 .22.36.4.8.4.44 0 .8.18.8.4 0 .22.461.4 1.024.4s.924.16.803.356c-.121.196.413.475 1.188.62.774.146 1.315.414 1.202.597-.114.183.714.729 1.838 1.213 6.107 2.627 12.817 3.69 17.819 2.824 1.719-.297 3.897-.556 4.839-.575.942-.019 1.853-.26 2.023-.535.171-.275 1.785-.795 3.587-1.157 2.171-.435 3.277-.84 3.277-1.2 0-.316.428-.543 1.024-.543.58 0 .916-.173.776-.4-.148-.24.364-.402 1.276-.406 1.131-.005 1.369-.106.924-.394-.485-.314-.428-.389.3-.394.495-.003.9-.17.9-.371 0-.201.702-.483 1.561-.628 1.069-.181 1.624-.507 1.762-1.036.121-.463.549-.771 1.071-.771 2.227 0 7.839-6.228 10.623-11.788l2.597-5.187-.433-3.166c-.467-3.409-.181-4.841 1.3-6.502 1.123-1.26 1.887-19.706 1.146-27.647-.388-4.154-.409-6.396-.083-9.11.237-1.98.555-8.051.705-13.491.245-8.834.353-9.975 1.013-10.683.406-.436.738-.938.738-1.116 0-.53 4.091-2.795 5.6-3.1 5.54-1.118 14.209-3.123 14.748-3.41.358-.191 1.774-.575 3.145-.854s2.305-.623 2.077-.765c-.229-.141.629-.557 1.907-.924a82.153 82.153 0 0 0 4.123-1.31c.99-.353 2.28-.629 2.867-.613.586.015 1.282-.231 1.545-.548.263-.318.634-.481.825-.363.19.117.845-.138 1.454-.567.61-.43 2.063-.998 3.229-1.263 1.455-.331 2.317-.782 2.746-1.438.344-.525.955-.955 1.356-.955.402 0 .842-.18.978-.4.136-.22.607-.4 1.047-.4.44 0 .708-.149.596-.33-.112-.182.849-.646 2.136-1.031 1.287-.386 2.746-1.134 3.243-1.662.611-.651 1.179-.892 1.76-.746.93.234 5.018-3.423 5.018-4.488 0-.299.169-.543.376-.543.208 0 1.316-.9 2.463-2s2.216-2 2.374-2c.159 0 .536-.301.838-.668.302-.367 2.056-1.987 3.897-3.6l3.348-2.932H400v-9.939l-3.235-.131c-1.779-.071-3.293-.071-3.363 0m-9.197 3.662c-.553.876-1.005 1.686-1.005 1.8 0 .204-.443.717-2.599 3.007-.586.623-1.605 1.393-2.263 1.712-1.566.759-.785.98 3.271.928l2.991-.039.01-3.6c.006-2.132.216-3.967.514-4.5.855-1.528.144-.992-.919.692M139.2 208.4c.533.345.533.391 0 .421-.33.018.21.256 1.2.529 3.43.944 6.575 2.938 7.334 4.65.2.451.324.475.5.098.129-.277.399-.401.6-.277.888.549.237-.762-1.134-2.283-1.862-2.065-4.895-3.531-7.3-3.528-1.309.002-1.636.108-1.2.39" fill="#780e76"/><path d="M0 92.4v92.4h2.4c1.887 0 2.4-.131 2.4-.611 0-1.012 2.305-5.254 3.285-6.048.503-.408 1.706-1.782 2.674-3.054.967-1.272 2.01-2.454 2.317-2.626.589-.329 1.035-2.086 2.757-10.861.582-2.97 1.207-5.584 1.387-5.81.181-.225.632-1.304 1.003-2.396.371-1.093 1.012-2.224 1.426-2.513.413-.29.751-.761.751-1.048 0-.287.479-1.221 1.065-2.077.752-1.099 1.279-2.731 1.794-5.556.951-5.219 1.617-6.901 3.511-8.872.859-.895 1.961-2.414 2.45-3.377.488-.963 1.016-1.841 1.174-1.951.754-.527 1.323-2.423 1.841-6.137 1.338-9.588 3.375-12.911 9.32-15.204 7.886-3.042 13.511-2.268 18.365 2.525 3.882 3.835 3.849 3.682 2.65 12.216-.243 1.729-2.151 6.2-2.645 6.2-.464 0-1.463 3.896-1.743 6.8-.433 4.491-1.391 9.745-2.043 11.2-.95 2.122-2.28 3.994-2.839 3.997a.51.51 0 0 0-.504.503c-.002.275-.689 1.58-1.526 2.9-1.17 1.845-1.694 3.279-2.266 6.2-.409 2.09-1.317 5.06-2.019 6.6-.701 1.54-1.412 3.25-1.579 3.8-.453 1.491-3.542 6.393-4.03 6.397-.69.005-1.472 11.667-.928 13.829.456 1.811 2.064 2.591 2.578 1.251.145-.377 1.147-.517 3.577-.5 3.26.022 3.416-.019 4.487-1.186.769-.839 1.908-1.43 3.71-1.927 1.43-.395 3.023-.84 3.541-.991.626-.181 1.118-.792 1.47-1.823.954-2.795 4.722-5.816 7.286-5.841 1.287-.013 2.85-1.528 3.3-3.199.773-2.868 3.817-5.255 8.724-6.84.898-.29 2.204-1.282 3.325-2.527 1.015-1.128 2.32-2.304 2.9-2.614.58-.31 1.054-.777 1.054-1.037 0-.26.855-1.289 1.9-2.286a111.41 111.41 0 0 0 3.538-3.56c2.887-3.079 7.128-5.76 9.725-6.15 2.564-.384 3.151-.791 3.613-2.506.529-1.965 3.363-4.904 5.624-5.832 2.917-1.198 2.979-1.256 3.47-3.202.925-3.67 3.102-5.9 6.699-6.86 1.534-.41 1.582-.479 2.238-3.209.732-3.045 1.783-5.387 2.417-5.387.223 0 .765-.842 1.206-1.871.495-1.154 1.951-3.012 3.803-4.851 1.65-1.64 3.286-3.534 3.635-4.21 2.852-5.515 15.594-8.84 21.832-5.697 1.265.637 2.3 1.317 2.3 1.511 0 .194.97 1.3 2.156 2.458l2.155 2.104.295 4.711c.339 5.425.234 5.763-2.706 8.735-1.045 1.056-1.907 2.233-1.916 2.615-.071 3.16-5.2 10.164-7.743 10.573-.932.15-1.145.549-2.282 4.29-.867 2.848-2.684 5.619-3.7 5.643-.662.015-3.899 4.699-4.331 6.266-.202.73-.892 1.716-1.534 2.191-.642.475-1.82 1.845-2.617 3.045-.797 1.201-2.126 2.926-2.955 3.835-1.05 1.152-1.587 2.175-1.773 3.379-.351 2.269-2.563 8.636-3.06 8.806-.214.074-.389.445-.389.825 0 .962-1.591 6.945-1.978 7.438-.175.222-.544 1.394-.821 2.604-.277 1.21-.944 3.28-1.482 4.6-.631 1.549-1.103 3.774-1.33 6.275-.193 2.131-.567 4.221-.831 4.644-.51.817.57 2.91 1.442 2.794.22-.029 1.12.145 2 .388.88.242 3.4.561 5.6.707 11.948.796 12.395.85 14.027 1.693 2.287 1.182 4.472 3.726 4.788 5.575.144.838.694 2.849 1.223 4.47 1.209 3.703 1.258 3.257-.705 6.426-2.205 3.557-4.21 4.75-9.533 5.672-1.474.255-3.12.838-3.8 1.346-.66.493-2.177 1.391-3.372 1.996-1.194.605-2.416 1.345-2.716 1.645-3.015 3.015-21.547 3.494-23.712.613-.11-.146-.987-.613-1.948-1.037-.962-.425-2.528-1.53-3.482-2.457-.953-.926-2.078-1.794-2.5-1.928-1.488-.472-7.083-6.35-8.018-8.422-.496-1.1-1.148-2.54-1.449-3.2-.848-1.857-.951-2.407-1.6-8.567-.799-7.577-1.174-8.977-2.328-8.69-.481.12-2.585.341-4.675.492-4.444.321-5.599.804-6.826 2.855-1.348 2.254-2.379 3.283-4.374 4.368-.99.539-2.7 1.495-3.8 2.125-1.1.629-2.238 1.161-2.528 1.181-.663.045-4.472 3.229-4.472 3.737 0 1.682-3.427 4.072-6.975 4.865-1.878.42-2.007.535-2.633 2.346-1.189 3.441-5.324 6.129-10.584 6.88-1.096.157-2.456.615-3.023 1.019-3.477 2.476-12.586 2.818-17.585.661-1.555-.671-4.144-1.334-6.444-1.651-4.191-.577-5.644-1.267-6.435-3.055-.484-1.093-.66-1.166-2.819-1.166H0V400h400V210.8h-5.104l-3.348 2.932c-1.841 1.613-3.595 3.233-3.897 3.6-.302.367-.679.668-.838.668-.158 0-1.227.9-2.374 2s-2.255 2-2.463 2c-.207 0-.376.244-.376.543 0 1.065-4.088 4.722-5.018 4.488-.581-.146-1.149.095-1.76.746-.497.528-1.956 1.276-3.243 1.662-1.287.385-2.248.849-2.136 1.031.112.181-.156.33-.596.33-.44 0-.911.18-1.047.4-.136.22-.576.4-.978.4-.401 0-1.012.43-1.356.955-.429.656-1.291 1.107-2.746 1.438-1.166.265-2.619.833-3.229 1.263-.609.429-1.264.684-1.454.567-.191-.118-.562.045-.825.363-.263.317-.959.563-1.545.548-.587-.016-1.877.26-2.867.613-.99.354-2.845.944-4.123 1.31-1.278.367-2.136.783-1.907.924.228.142-.706.486-2.077.765s-2.787.663-3.145.854c-.539.287-9.208 2.292-14.748 3.41-1.509.305-5.6 2.57-5.6 3.1 0 .178-.332.68-.738 1.116-.66.708-.768 1.849-1.013 10.683-.15 5.44-.468 11.511-.705 13.491-.326 2.714-.305 4.956.083 9.11.741 7.941-.023 26.387-1.146 27.647-1.481 1.661-1.767 3.093-1.3 6.502l.433 3.166-2.597 5.187c-2.784 5.56-8.396 11.788-10.623 11.788-.522 0-.95.308-1.071.771-.138.529-.693.855-1.762 1.036-.859.145-1.561.427-1.561.628s-.405.368-.9.371c-.728.005-.785.08-.3.394.445.288.207.389-.924.394-.912.004-1.424.166-1.276.406.14.227-.196.4-.776.4-.596 0-1.024.227-1.024.543 0 .36-1.106.765-3.277 1.2-1.802.362-3.416.882-3.587 1.157-.17.275-1.081.516-2.023.535-.942.019-3.12.278-4.839.575-5.002.866-11.712-.197-17.819-2.824-1.124-.484-1.952-1.03-1.838-1.213.113-.183-.428-.451-1.202-.597-.775-.145-1.309-.424-1.188-.62s-.24-.356-.803-.356c-.563 0-1.024-.18-1.024-.4 0-.22-.36-.4-.8-.4-.44 0-.8-.18-.8-.4 0-.22.225-.401.5-.401.275-.001-.13-.377-.9-.836-.77-.458-1.978-1.492-2.685-2.298-.707-.806-1.292-1.24-1.3-.965-.008.275-.177.5-.376.5-.423 0-1.331-2.392-.918-2.418.153-.009-.361-.356-1.144-.77-1.77-.935-4.777-3.9-4.777-4.708 0-.515-.096-.522-.665-.053-.526.434-.701.443-.836.042-.195-.58-.731-1.111-2.424-2.406-.749-.572-1.126-1.169-1.013-1.602.099-.38-.443-1.886-1.205-3.347-3.225-6.189-4.001-14.791-4.067-45.138-.048-21.981-.006-23.497.689-25 1.023-2.215 4.755-7.423 5.701-7.959 1.474-.833 2.401-2.229 4.196-6.319 1.46-3.327 1.069-3.995-1.851-3.158-.698.2-3.127.415-5.397.477-2.27.062-4.308.243-4.528.401-.859.616-7.708 3.958-8.113 3.958-.237 0-.671.225-.966.5-5.559 5.187-28.134 3.374-33.456-2.687-.696-.792-1.265-1.585-1.265-1.761 0-.175-1.243-.923-2.762-1.662-4.454-2.165-6.173-5.969-7.225-15.99-.243-2.31-.644-5.19-.893-6.4-.769-3.75-.866-11.733-.178-14.739.335-1.464.715-4.191.845-6.061.472-6.791 1.788-14.383 2.833-16.344 2.957-5.546 4.208-7.772 4.969-8.841 1.081-1.518 2.003-8.909 2.008-16.105l.003-5.089-1.2-.621c-.66-.341-1.2-.796-1.2-1.01 0-.215-.315-.4-.7-.412-2.156-.068-6.5-10.823-6.5-16.092 0-4.22 3.241-8.686 6.303-8.686.64 0 1.668-.719 3.046-2.131 2.829-2.897 5.902-4.312 9.823-4.525 8.825-.478 8.673-.386 10.192-6.144 1.544-5.852 3.753-10.798 5.627-12.6.68-.654.925-1.677 1.341-5.6 1.982-18.719 2.803-20.694 9.752-23.439.596-.235 1.186-.728 1.312-1.094 1.058-3.078 11.745-4.814 15.636-2.541.483.282 4.153 3.368 5.374 4.52 4.322 4.074 2.949 18.049-2.937 29.906-1.868 3.762-2.618 5.752-2.822 7.486a41.42 41.42 0 0 1-.859 4.607c-.754 2.91-.341 3.776 3.795 7.962 5.191 5.254 7.518 5.187 7.041-.202-.22-2.489-.399-2.95-1.632-4.213l-1.385-1.418.535-4.587c.384-3.291.778-4.982 1.395-5.987.473-.77.861-1.994.862-2.72.003-2.69 1.689-4.48 4.219-4.48.931 0 4.032-3.446 3.801-4.223-.05-.168.208-.472.574-.677.579-.324.507-.489-.553-1.27l-1.218-.899 1.076-.865c.592-.477.947-.866.789-.866-.991 0 6.436-7.058 8.057-7.658.471-.174.856-.474.856-.666 0-.542 60.846-.617 66.165-.081 5.595.563 8.121 1.049 9.637 1.855.659.35 2.174.977 3.366 1.395 2.695.943 5.133 2.359 6.402 3.717.533.571 1.309 1.038 1.723 1.038.415 0 .642.181.505.403-.137.221.078.511.477.643.399.132 1.292.49 1.985.797.694.306 1.492.557 1.774.557.997 0 5.377 1.705 6.166 2.4.44.388 2.402 1.352 4.361 2.142 1.958.791 3.884 1.784 4.279 2.209.395.424 1.673 1.081 2.839 1.46 1.167.379 2.694 1.117 3.394 1.639.701.523 1.461.95 1.69.95.229 0 .692.534 1.03 1.186.337.653.837 1.107 1.11 1.009.273-.098.938.538 1.477 1.414.54.875 1.215 1.591 1.5 1.591.286 0 .52.257.52.572 0 .315.367.63.816.7.449.07.849.308.889.528.085.46 2.094 1.999 3.34 2.559.465.209.937.619 1.049.91.147.387.921.495 2.854.397l2.652-.134V0H0v92.4m385.739 9.132c.364.403.568.828.452.943-.279.28.811 1.167 1.57 1.278.33.049.969.422 1.42.83.805.728.819.723.819-.26 0-1.671-2.121-3.523-4.036-3.523-.835 0-.849.043-.225.732m-137.254 29.585c-.685.595-1.299 1.533-1.365 2.083-.066.55-.3 1.132-.52 1.294-.251.185-.223.296.076.3a.931.931 0 0 0 .723-.392c.869-1.407 1.844-1.238 1.568.272l-.28 1.526.856-.762c.672-.597.857-1.219.857-2.876 0-2.594-.319-2.834-1.915-1.445m-5.132 6.949c-1.412.844-6.089 2.122-9.307 2.543-1.877.245-2.686.686-6.305 3.436-2.284 1.735-4.313 3.155-4.511 3.155-.498 0-1.825 2.928-2.629 5.8-.369 1.32-1.097 3.21-1.616 4.2-.519.99-1.407 2.928-1.973 4.307-.565 1.379-1.564 3.379-2.22 4.444-.656 1.066-1.192 2.357-1.192 2.869 0 3.887-2.627 13.552-4.561 16.78-3.268 5.454-5.071 18.628-2.655 19.395.828.263 5.052 3.476 6.28 4.777.829.879 5.634 1.263 6.386.511.122-.122.801-.127 1.509-.012.742.12 2.394-.133 3.902-.599 1.933-.597 3.243-.75 5.029-.588 1.772.16 2.909.03 4.27-.49 1.02-.389 2.886-.918 4.147-1.174 1.978-.403 2.289-.588 2.26-1.353-.034-.927 1.291-1.561 2.387-1.14.382.147.496-.014.365-.514-.157-.601-.472-.69-1.816-.509-1.144.153-1.543.085-1.348-.231.169-.273-.295-.688-1.183-1.059-1.034-.432-1.39-.79-1.222-1.227.135-.352-.018-.715-.357-.845-.326-.125-.593-.527-.593-.892s-.465-1.349-1.034-2.186c-.671-.987-1.167-2.457-1.411-4.18-.207-1.461-.67-3.105-1.029-3.653-.752-1.148-.805-5.11-.157-11.755.219-2.242.496-7.292.617-11.223l.22-7.148 1.375-2.652a142.25 142.25 0 0 0 2.391-4.853c.559-1.21 1.791-3.28 2.739-4.6.948-1.32 2.013-3.12 2.366-4 2.672-6.658 2.627-6.382.876-5.334m1.133 2.672c-.283.18-.398.626-.257.994.372.968.849.82 1.069-.332.201-1.054.029-1.195-.812-.662M370.62 223.91c-.516.486-.633.513-.393.09.259-.459.108-.435-.644.104-.541.387-1.399.882-1.907 1.099-.508.218-.813.576-.676.796.136.221-.033.401-.376.401-.343 0-.624.18-.624.4 0 .501 2.029.521 3.313.033.53-.202 1.277-1.026 1.66-1.832.806-1.698.685-2.07-.353-1.091m-125.804 9.79c.015 1.982.046 2.044.545 1.1 1.047-1.981 1.141-3.2.247-3.2-.71 0-.806.255-.792 2.1m106.13-1.613c-.106.172-.534.313-.95.313-.416 0-.9.225-1.076.5-.377.589-3.686 2.303-4.444 2.301-1.149-.002.009.71 1.557.958.908.145 2.196.546 2.863.89 2.071 1.072 3.758-.729 3.864-4.124.039-1.233-1.213-1.81-1.814-.838M247.6 325.338c0 .64 1.267 1.862 1.931 1.862.664 0 .59-.255-.403-1.397-.967-1.112-1.528-1.283-1.528-.465m5.2 6.682c0 1.077 1.293 2.734 2.448 3.137 1.825.636 6.543.569 5.152-.073-.55-.254-1.09-.557-1.2-.673-1.852-1.955-6.4-3.654-6.4-2.391m47.217.56c-.265.319-1.313.982-2.328 1.474-1.016.491-1.631.965-1.368 1.053.734.245 3.346-1.198 3.997-2.207.647-1.004.445-1.219-.301-.32" fill="#81007f"/><path d="M260 88.765c-3.442.495-6.285 2.844-7.168 5.924-1.283 4.473-.803 14.15.834 16.811 1.106 1.798 1.697 1.639.741-.2-1.724-3.316-2.041-8.139-1-15.242.251-1.717 2.51-4.757 4.21-5.667 2.135-1.143 6.946-1.275 44.383-1.218 49.758.075 50.143.113 53.405 5.245 1.087 1.71 2.81 2.488 7.395 3.34 6.452 1.2 8.701 2.356 10.2 5.245 1.065 2.053 2.769 3.623 5.2 4.79 2.979 1.431 4.249 2.798 5.393 5.807.292.77.954 2.35 1.469 3.512.516 1.161.938 2.202.938 2.313 0 .111.59.792 1.312 1.514 6.499 6.499 6.737 7.704 6.973 35.345l.181 21.285-1.455 5.075c-1.943 6.774-4.106 10.556-6.037 10.556-.533 0-1.395 1.669-2.654 5.134-.911 2.509-1.895 3.761-5.55 7.066-.974.88-2.2 2.183-2.726 2.895-1.129 1.53-3.723 3.127-6.57 4.045-1.523.491-2.278 1.018-2.951 2.06-2.468 3.823-4.296 4.643-15.318 6.874-4.9.992-8.296 1.888-9.145 2.412-1.505.93-15.559 1.597-22.26 1.056-13.447-1.086-18.378-.621-10.759 1.014 5.094 1.093 20.779 1.528 29.308.814 3.047-.256 7.345-1.837 8.379-3.083.29-.349 1.1-.746 1.8-.88 14.584-2.804 18.023-4.252 19.238-8.097.215-.678.93-1.083 3.004-1.701 3.028-.902 5.097-2.333 8.63-5.969 4.409-4.538 5.461-6.15 6.251-9.577.374-1.623.718-2.223 1.427-2.493 3.317-1.261 4.439-3.059 6.345-10.17l1.5-5.6.076-19.4c.099-25.274-.561-31.853-3.597-35.833-.551-.722-1.002-1.492-1.002-1.71 0-.673-2.034-2.854-3.248-3.482-.633-.327-1.152-.766-1.152-.973 0-.208-.426-1.329-.948-2.49-.521-1.162-1.063-2.604-1.205-3.205-.401-1.695-2.493-3.783-4.566-4.558-2.771-1.036-4.293-2.342-5.056-4.339-1.406-3.682-4.697-5.237-13.576-6.415-2.707-.36-3.007-.521-3.603-1.944-1.487-3.548-4.514-5.191-10.779-5.851-4.05-.427-83.316-.458-86.267-.035m-2.545 29.435c.127.33.391.6.588.6.196 0 .735.378 1.196.839 1.573 1.573 17.977 2.285 23.522 1.021 3.464-.789 4.018-.682 4.994.971 1.595 2.701-.302 3.169-8.155 2.01-1.21-.178-6.52-.198-11.8-.043-11.38.333-12.922.729-14.568 3.743l-.936 1.714-.151 40.973c-.083 22.534-.177 44.122-.21 47.972-.033 3.85.071 24.55.232 46 .161 21.611.136 41.318-.058 44.2-.81 12.053 2.723 17.26 12.691 18.707 1.974.286 4.994.398 7.2.266 2.09-.124 8.25-.141 13.688-.037l9.889.189 1.599-1.108c2.121-1.47 4.588-5.317 5.269-8.217.397-1.692.429-82.243.034-84.8-.154-.99-.226 16.789-.161 39.508l.117 41.308-.871 3.226c-.792 2.936-1.097 3.464-3.376 5.846l-2.505 2.619-5.742-.354c-6.023-.37-12.114-.411-20.141-.135-13.022.449-17.754-4.364-16.931-17.218.222-3.456.252-21.806.074-45.4-.163-21.78-.278-42.03-.253-45 .024-2.97.119-23.49.21-45.6.189-45.584.153-45.094 3.419-46.327 3.471-1.31 18.13-1.902 25.196-1.017l4.915.616 1.412-1.077c1.533-1.17 1.536-1.478.036-3.689-1.181-1.74-1.524-1.816-4.613-1.023-5.265 1.351-21.337.405-24.825-1.461-1.06-.568-1.257-.532-.985.178m52.983 11.7c-8.096.16-7.89-.067-8.102 8.9-.184 7.796.062 34.935.315 34.683.138-.138.273-9.522.3-20.853.058-24.547-.644-22.046 6.151-21.913 2.584.05 6.678-.063 9.098-.253 4.629-.363 7.4.431 7.4 2.118 0 3.091 2.615 4.605 12.78 7.399 3.024.831 2.785.406 4.387 7.819 2.349 10.869 2.351 10.884 1.372 13.616-.476 1.329-.983 3.309-1.127 4.4-.444 3.355-1.337 4.931-3.387 5.98-2.33 1.191-3.568 2.369-4.28 4.073-.626 1.5-2.502 2.837-4.345 3.099-.66.094-3 .452-5.2.797-2.515.394-6.45.618-10.6.602-3.63-.015-7.467.171-8.526.411-1.059.24-2.122.316-2.362.168-.24-.148-.335-.107-.212.092.396.642 18.997.337 21.712-.356 1.313-.334 3.288-.737 4.388-.894 2.276-.324 5.702-2.061 6.019-3.051.251-.787 3.586-3.937 4.167-3.937.803 0 2.453-3.289 3.372-6.722.516-1.929 1.34-4.294 1.83-5.255l.892-1.748-.828-3.238c-.455-1.78-.993-4.047-1.196-5.037-2.056-10.041-2.394-10.555-8.075-12.275-6.405-1.94-9.581-3.917-9.581-5.964 0-1.493-3.579-2.966-6.978-2.872-1.772.049-5.995.143-9.384.211m-8.337 46.3c.004.88.086 1.193.182.695.096-.497.092-1.217-.008-1.6-.1-.382-.179.025-.174.905" fill="#713670"/><path d="M262.341 89.465c-1.838.256-3.57.481-3.85.5-2.176.15-4.817 4.097-5.302 7.924-.886 6.987-.201 11.879 2.033 14.511.654.77 1.626 2.346 2.162 3.502.596 1.287 1.331 2.234 1.895 2.443 4.619 1.711 18.7 2.395 23.793 1.157 3.313-.806 3.621-.742 4.806 1.004 1.5 2.211 1.497 2.519-.036 3.689l-1.412 1.077-4.915-.616c-7.066-.885-21.725-.293-25.196 1.017-3.266 1.233-3.23.743-3.419 46.327-.091 22.11-.186 42.63-.21 45.6-.025 2.97.09 23.22.253 45 .178 23.594.148 41.944-.074 45.4-.823 12.854 3.909 17.667 16.931 17.218 8.027-.276 14.118-.235 20.141.135l5.742.354 2.505-2.619c4.512-4.716 4.254-1.584 4.194-50.816-.05-41.243-.041-41.788.783-44.513 1.281-4.24.309-3.921 10.288-3.37 15.178.837 26.548.517 28.752-.811.663-.399 4.713-1.436 9-2.304 11.022-2.231 12.85-3.051 15.318-6.874.673-1.042 1.428-1.569 2.951-2.06 2.847-.918 5.441-2.515 6.57-4.045.526-.712 1.752-2.015 2.726-2.895 3.655-3.305 4.639-4.557 5.55-7.066 1.259-3.465 2.121-5.134 2.654-5.134 1.931 0 4.094-3.782 6.037-10.556l1.455-5.075-.181-21.285c-.236-27.641-.474-28.846-6.973-35.345-.722-.722-1.312-1.403-1.312-1.514 0-.111-.422-1.152-.938-2.313a88.02 88.02 0 0 1-1.469-3.512c-1.144-3.009-2.414-4.376-5.393-5.807-2.431-1.167-4.135-2.737-5.2-4.79-1.499-2.889-3.748-4.045-10.2-5.245-4.585-.852-6.308-1.63-7.395-3.34-2.083-3.277-4.315-4.232-11.21-4.797-7.602-.623-77.544-.756-81.854-.156m82.182 1.132c5.206.706 7.34 1.582 9.056 3.717 1.636 2.035 4.578 3.377 9.786 4.461 4.26.887 6.816 2.113 8.058 3.865 1.8 2.541 4.073 4.694 6.349 6.015 3.425 1.987 3.511 2.11 6.839 9.745 1.015 2.329 2.015 3.908 3.175 5.013 5.209 4.96 5.783 8.478 5.8 35.587.015 22.363-.896 27.081-6.268 32.481-1.367 1.375-2.321 2.839-3.073 4.717-1.478 3.692-3.133 5.986-5.189 7.19-.988.579-2.261 1.845-2.994 2.977-1.43 2.206-3.516 3.738-7.301 5.361-1.831.786-2.896 1.55-3.736 2.684-2.259 3.048-6.153 4.669-14.849 6.181-1.967.342-4.926.926-6.576 1.297-2.568.578-5.615.678-21.17.694l-18.17.018-.694 1.8c-2.123 5.506-2.01 2.794-1.987 47.739.025 48.67.267 45.966-4.471 49.977l-1.892 1.601-5.308-.468c-6.862-.606-14.995-.643-18.385-.083-2.114.349-3.417.32-6.2-.138a633.265 633.265 0 0 0-5.208-.837c-3.21-.489-6.694-5.141-6.569-8.772.031-.891.115-41.849.186-91.019.143-98.498-.031-91.992 2.523-94.545 2.389-2.39 14.901-3.669 24.735-2.529 5.685.659 6.272.554 8.148-1.454 1.143-1.224.977-1.88-1.072-4.252l-1.537-1.779-4.165.482c-7.68.888-14.976.463-19.984-1.165-6.188-2.011-9.549-8.613-8.554-16.805.958-7.888 3.246-9.884 11.974-10.449 6.635-.43 74.875.171 78.723.693m-32.763 38.586c-11.172.317-10.126-2.386-10.173 26.281l-.037 22.346 1.038 1.857c1.615 2.889 1.095 2.774 11.87 2.637 18.859-.24 27.278-4.731 30.185-16.101.338-1.322 1.233-3.537 1.989-4.923 1.074-1.969 1.287-2.685.972-3.273-.222-.414-.745-2.16-1.163-3.88a157.34 157.34 0 0 0-1.843-6.727 277.382 277.382 0 0 1-1.479-5.063c-.58-2.137-2.113-3.343-5.519-4.344-4.535-1.332-7.71-2.903-8.818-4.361-2.58-3.398-4.972-4.879-7.666-4.749-.944.046-5.154.181-9.356.3m13.162 1.608c1.033.655 1.878 1.452 1.878 1.77 0 2.047 3.176 4.024 9.581 5.964 5.681 1.72 6.019 2.234 8.075 12.275.203.99.741 3.257 1.196 5.037l.828 3.238-.892 1.748c-.49.961-1.314 3.326-1.83 5.255-.919 3.433-2.569 6.722-3.372 6.722-.581 0-3.916 3.15-4.167 3.937-.317.99-3.743 2.727-6.019 3.051-1.1.157-3.075.56-4.388.894-1.772.452-4.85.623-11.942.664l-9.554.054-.996-1.701-.997-1.701.029-22.099c.038-28.275-.726-25.824 8.109-26 3.376-.067 7.589-.161 9.361-.21 2.965-.082 3.371.006 5.1 1.102" fill="#80487f"/><path d="M229.8 55.33c-1.809.708-4.169 2.385-4.415 3.137-.12.366-.705.859-1.301 1.094-6.949 2.745-7.77 4.72-9.752 23.439-.416 3.923-.661 4.946-1.341 5.6-1.874 1.802-4.083 6.748-5.627 12.6-1.519 5.758-1.367 5.666-10.192 6.144-3.921.213-6.994 1.628-9.823 4.525-1.378 1.412-2.406 2.131-3.046 2.131-3.062 0-6.303 4.466-6.303 8.686 0 5.269 4.344 16.024 6.5 16.092.385.012.7.197.7.412 0 .214.54.669 1.2 1.01l1.2.621-.003 5.089c-.005 7.196-.927 14.587-2.008 16.105-.761 1.069-2.012 3.295-4.969 8.841-1.045 1.961-2.361 9.553-2.833 16.344-.13 1.87-.51 4.597-.845 6.061-.688 3.006-.591 10.989.178 14.739.249 1.21.65 4.09.893 6.4 1.052 10.021 2.771 13.825 7.225 15.99 1.519.739 2.762 1.487 2.762 1.662 0 .176.569.969 1.265 1.761 5.322 6.061 27.897 7.874 33.456 2.687.295-.275.729-.5.966-.5.405 0 7.254-3.342 8.113-3.958.22-.158 2.29-.337 4.6-.398 4.756-.124 4.24.188 7.856-4.762 1.819-2.489 2.394-4.39 1.717-5.671-.178-.336-.605-1.499-.949-2.584-1.371-4.326-3.566-6.904-6.142-7.214-3.1-.373-5.826-1.058-6.147-1.545-.624-.947-5.438-1.072-8.218-.213-1.55.478-3.211.737-3.958.616-.708-.115-1.387-.11-1.509.012-.752.752-5.557.368-6.386-.511-1.228-1.301-5.452-4.514-6.28-4.777-2.416-.767-.613-13.941 2.655-19.395 1.934-3.228 4.561-12.893 4.561-16.78 0-.512.536-1.803 1.192-2.869.656-1.065 1.655-3.065 2.22-4.444.566-1.379 1.454-3.317 1.973-4.307.519-.99 1.247-2.88 1.616-4.2.804-2.872 2.131-5.8 2.629-5.8.198 0 2.227-1.42 4.511-3.155 3.626-2.756 4.424-3.19 6.305-3.432 5.107-.656 6.977-1.898 10.235-6.794 2.492-3.745 5.114-5.771 6.507-5.025.881.471 2.517-.835 3.016-2.407.127-.399 1.212-1.132 2.413-1.629 1.53-.634 2.183-1.126 2.183-1.644 0-.407.28-.847.623-.978.343-.132.533-.474.422-.762-.11-.287.004-.59.252-.673 1.142-.381-1.329-1.901-3.089-1.901-1.992 0-1.995.004-2.344 3.776-.213 2.304-.944 3.024-3.07 3.024-3.201 0-7.471 2.935-9.021 6.2-.428.903-1.072 1.498-1.91 1.764a48.47 48.47 0 0 1-12.372 2.267c-5.611.305-8.237 1.234-9.801 3.469-1.262 1.804-4.869 7.449-5.687 8.9-1.263 2.243-2.909 8.538-4.392 16.8-.487 2.716-1.146 4.465-2.485 6.6-4.274 6.815-5.446 11.609-5.769 23.6-.391 14.544 1.132 19.905 6.126 21.557 7.897 2.613 13.431 2.68 21.517.26 8.806-2.635 13.364-1.968 15.597 2.283l1.603 3.05-.74 1.383c-.407.76-1.294 2.054-1.972 2.876l-1.231 1.494-7.974-.287c-4.385-.158-8.548-.359-9.251-.446-1.553-.193-6.622 2.11-7.545 3.427-1.548 2.211-2.399 2.217-8.3.064-1.218-.444-4.368-1.108-7-1.476-9.17-1.282-11.314-3.265-15.362-14.201-1.555-4.202-2.112-18.214-1.025-25.784 1.788-12.457 1.674-11.978 3.525-14.881 2.445-3.835 3.285-6.06 4.274-11.319.476-2.53 1.121-4.884 1.433-5.231.312-.348.568-.802.568-1.009 0-.208.512-1.004 1.139-1.769 3.022-3.693 3.45-4.818 4.022-10.574.497-5.002-.055-6.15-4.264-8.858-2.31-1.486-4.567-3.623-7.287-6.899-1.782-2.147-1.969-2.419-3.365-4.894l-.754-1.338 1.866-1.69c1.027-.929 2.86-2.061 4.073-2.515 1.214-.454 2.911-1.185 3.773-1.624 2.031-1.036 2.937-1.009 7.649.234l3.918 1.033 2.072-1.127c4.606-2.507 8.164-7.37 9.404-12.854.334-1.477.772-3.315.973-4.085.201-.77.823-3.29 1.383-5.6.559-2.31 1.26-5.1 1.556-6.2.297-1.1.671-4.16.832-6.8.272-4.442.408-5.039 1.828-8 .843-1.76 1.649-3.673 1.789-4.252.666-2.742 6.166-6.818 8.526-6.318 7.074 1.498 10.067 3.225 10.067 5.807 0 3.53-1.358 8.462-3.251 11.81-1.072 1.897-1.949 3.657-1.949 3.913 0 .711-2.314 6.629-4.081 10.44-.867 1.87-1.945 4.21-2.396 5.2-.45.99-.986 2.128-1.192 2.528-.714 1.393-1.284 10.293-.753 11.76 1.184 3.276 5.996 4.332 19.522 4.286 4.78-.016 4.729.017 5.079-3.4.314-3.065-.844-5.417-1.893-3.848-2.635 3.937-4.054 3.787-8.703-.919-4.136-4.186-4.549-5.052-3.795-7.962a41.42 41.42 0 0 0 .859-4.607c.204-1.734.954-3.724 2.822-7.486 5.886-11.857 7.259-25.832 2.937-29.906-1.24-1.17-4.895-4.241-5.355-4.501-1.602-.904-9.42-1.331-11.251-.615M46.592 105.195c-9.182 1.35-12.807 5.559-14.357 16.668-.518 3.714-1.087 5.61-1.841 6.137-.158.11-.686.988-1.174 1.951-.489.963-1.591 2.482-2.45 3.377-1.894 1.971-2.56 3.653-3.511 8.872-.515 2.825-1.042 4.457-1.794 5.556-.586.856-1.065 1.79-1.065 2.077 0 .287-.338.758-.751 1.048-.414.289-1.055 1.42-1.426 2.513-.371 1.092-.822 2.171-1.003 2.396-.18.226-.805 2.84-1.387 5.81-1.722 8.775-2.168 10.532-2.757 10.861-.307.172-1.35 1.354-2.317 2.626-.968 1.272-2.171 2.646-2.674 3.054-.98.794-3.285 5.036-3.285 6.048 0 .48-.513.611-2.4.611H0v42.4h2.302c2.159 0 2.335.073 2.819 1.166.791 1.788 2.244 2.478 6.435 3.055 2.3.317 4.889.98 6.444 1.651 4.999 2.157 14.108 1.815 17.585-.661.567-.404 1.927-.862 3.023-1.019 5.26-.751 9.395-3.439 10.584-6.88.626-1.811.755-1.926 2.633-2.346 3.548-.793 6.975-3.183 6.975-4.865 0-.508 3.809-3.692 4.472-3.737.29-.02 1.428-.552 2.528-1.181 1.1-.63 2.81-1.586 3.8-2.125 1.995-1.085 3.026-2.114 4.374-4.368 1.227-2.051 2.382-2.534 6.826-2.855 2.09-.151 4.194-.372 4.675-.492 1.154-.287 1.529 1.113 2.328 8.69.731 6.937.756 7.029 3.319 12.367.758 1.579 6.572 7.449 7.748 7.822.422.134 1.547 1.002 2.5 1.928.954.927 2.52 2.032 3.482 2.457.961.424 1.838.891 1.948 1.037 2.165 2.881 20.697 2.402 23.712-.613.3-.3 1.522-1.04 2.716-1.645 1.195-.605 2.712-1.503 3.372-1.996.68-.508 2.326-1.091 3.8-1.346 5.323-.922 7.328-2.115 9.533-5.672 1.967-3.174 1.922-2.744.67-6.434-.549-1.616-.999-3.321-1-3.789-.004-1.082-1.015-2.021-1.364-1.266-.185.401-.299.382-.505-.083-.773-1.745-4.833-4.239-7.64-4.695-.825-.134-1.166-.337-.872-.519.886-.547-1.906-1.002-8.622-1.405-2.2-.131-4.72-.438-5.6-.68-.88-.243-1.78-.417-2-.388-.872.116-1.952-1.977-1.442-2.794.264-.423.638-2.513.831-4.644.227-2.501.699-4.726 1.33-6.275.538-1.32 1.205-3.39 1.482-4.6.277-1.21.646-2.382.821-2.604.387-.493 1.978-6.476 1.978-7.438 0-.38.175-.751.389-.825.497-.17 2.709-6.537 3.06-8.806.186-1.204.723-2.227 1.773-3.379.829-.909 2.158-2.634 2.955-3.835.797-1.2 1.975-2.57 2.617-3.045.642-.475 1.332-1.461 1.534-2.191.432-1.567 3.669-6.251 4.331-6.266 1.016-.024 2.833-2.795 3.7-5.643 1.137-3.741 1.35-4.14 2.282-4.29 2.543-.409 7.672-7.413 7.743-10.573.009-.382.871-1.559 1.916-2.615 2.94-2.972 3.045-3.31 2.706-8.735l-.295-4.711-2.155-2.104c-1.186-1.158-2.156-2.264-2.156-2.458 0-.194-1.035-.874-2.3-1.511-6.238-3.143-18.98.182-21.832 5.697-.349.676-1.985 2.57-3.635 4.21-1.852 1.839-3.308 3.697-3.803 4.851-.441 1.029-.983 1.871-1.206 1.871-.634 0-1.685 2.342-2.417 5.387-.656 2.73-.704 2.799-2.238 3.209-3.597.96-5.774 3.19-6.699 6.86-.491 1.946-.553 2.004-3.47 3.202-2.261.928-5.095 3.867-5.624 5.832-.462 1.715-1.049 2.122-3.613 2.506-2.597.39-6.838 3.071-9.725 6.15a111.41 111.41 0 0 1-3.538 3.56c-1.045.997-1.9 2.026-1.9 2.286 0 .26-.474.727-1.054 1.037-.58.31-1.885 1.486-2.9 2.614-1.121 1.245-2.427 2.237-3.325 2.527-4.907 1.585-7.951 3.972-8.724 6.84-.45 1.671-2.013 3.186-3.3 3.199-2.564.025-6.332 3.046-7.286 5.841-.352 1.031-.844 1.642-1.47 1.823-.518.151-2.111.596-3.541.991-1.802.497-2.941 1.088-3.71 1.927-1.071 1.167-1.227 1.208-4.487 1.186-2.43-.017-3.432.123-3.577.5-.514 1.34-2.122.56-2.578-1.251-.544-2.162.238-13.824.928-13.829.488-.004 3.577-4.906 4.03-6.397.167-.55.878-2.26 1.579-3.8.702-1.54 1.61-4.51 2.019-6.6.572-2.921 1.096-4.355 2.266-6.2.837-1.32 1.524-2.625 1.526-2.9a.51.51 0 0 1 .504-.503c.559-.003 1.889-1.875 2.839-3.997.652-1.455 1.61-6.709 2.043-11.2.28-2.904 1.279-6.8 1.743-6.8.494 0 2.402-4.471 2.645-6.2 1.199-8.534 1.232-8.381-2.65-12.216-4.011-3.961-7.142-4.898-13.328-3.989m4.958 4.579c.611.316 1.761 1.295 2.556 2.175l1.446 1.601-.205 3.325c-.307 4.986-1.451 10.025-3.082 13.575-.341.742-.908 2.43-1.26 3.75-.352 1.32-.799 2.691-.993 3.047-.194.356-.563 1.436-.82 2.4-.256.964-.706 2.023-.999 2.353-.294.33-1.796 3.726-3.338 7.548-1.543 3.821-3.165 7.331-3.605 7.8-1.617 1.723-3.2 6.093-4.656 12.852-1.633 7.583-2.474 9.727-5.154 13.148-1.012 1.292-1.84 2.557-1.84 2.812 0 .255-.255 2.619-.566 5.252-1.176 9.961-.541 16.149 1.838 17.909l1.071.793 1.729-1.653c.95-.909 1.894-1.654 2.097-1.657.202-.002.652-.243 1-.536.347-.293 1.486-.848 2.532-1.234 1.045-.385 2.137-1.039 2.427-1.453.855-1.22 5.054-3.542 7.983-4.414 2.299-.685 3.149-1.216 5.503-3.436 1.531-1.444 4.217-3.459 5.969-4.478 1.998-1.162 4.581-3.214 6.926-5.5 2.057-2.006 4.449-4.113 5.315-4.683 1.986-1.304 5.034-3.541 8.042-5.901 1.284-1.006 3.214-2.176 4.29-2.6 2.208-.868 3.803-2.281 5.844-5.18.866-1.229 2.394-2.622 4-3.646 1.43-.911 3.77-2.76 5.2-4.109 3.18-3 3.999-3.605 4.902-3.621.749-.014 3.681-1.365 5.759-2.655 1.776-1.102 6.165-6.666 7.959-10.091 1.091-2.083 2.233-3.518 4.106-5.163 1.428-1.253 3.243-3.253 4.035-4.445a726.921 726.921 0 0 1 2.303-3.447c.476-.704 1.4-1.732 2.055-2.283 1.189-1 4.081-4.766 4.081-5.314 0-.601 3.056-4.139 4.369-5.057.753-.527 2.463-2.008 3.8-3.292 6.32-6.068 9.85-4.601 10.694 4.444.464 4.987-.031 6.32-3.889 10.477-1.334 1.437-3.044 3.513-3.8 4.613-.756 1.1-1.564 2.18-1.797 2.4-.232.22-.883 1.03-1.445 1.8s-2.082 2.59-3.377 4.045-2.895 3.331-3.555 4.169c-2.115 2.687-3.519 4.334-5.612 6.586-1.603 1.725-2.318 2.955-3.307 5.694-1.616 4.477-2.787 6.727-5.05 9.706-1.963 2.584-2.966 5.152-4.409 11.291-2.399 10.199-4.235 16.079-5.495 17.597-.748.902-3.127 6.535-3.127 7.405 0 1.071 1.612 3.103 6 7.566 5.128 5.216 5.88 5.611 9.221 4.851 1.431-.325 5.463-.663 9.056-.757l6.477-.171.596 1.309c1.743 3.829 1.949 5.151.965 6.217-4.371 4.737-23.352 7.611-33.556 5.081-6.971-1.729-9.099-3.448-9.929-8.024-.237-1.301-.816-3.355-1.289-4.565-1.624-4.161.004-21.801 2.637-28.571 1.093-2.809-.139-5.226-3.173-6.227-1.69-.558-3.416.611-6.863 4.645-1.051 1.23-2.278 2.402-2.726 2.604-.449.201-1.536.907-2.416 1.567-.88.661-3.13 1.995-5 2.964-1.882.976-4.444 2.74-5.739 3.95-1.286 1.203-3.782 2.964-5.547 3.914-1.765.95-3.49 2.184-3.834 2.741-1.264 2.051-3.155 3.731-6.166 5.477-1.779 1.032-4.15 2.89-5.6 4.388-1.706 1.764-3.303 2.962-4.969 3.728-2.984 1.372-6.721 3.886-8.345 5.612-4.366 4.642-9.481 5.666-21.884 4.382-8.296-.859-9.009-2.102-9.395-16.355-.347-12.824.938-19.343 4.527-22.964 1.627-1.641 4.511-7.698 6.407-13.455 1.051-3.19 2.514-6.88 3.252-8.2 3.025-5.411 3.631-7.127 4.286-12.149.631-4.832.771-5.525 1.42-7.051 1.668-3.917 3.285-6.999 4.198-8 1.745-1.911 3.267-5.589 4.72-11.4 1.252-5.008 2.903-9.203 3.854-9.791.22-.136.925-1.363 1.567-2.728 1.983-4.215 6.104-6.7 8.798-5.307m51.75 66.891c-.702.283-.627.648.347 1.693l.846.908.488-.933c.735-1.404-.152-2.285-1.681-1.668" fill="#ad06aa"/><path d="M265.8 89.904c-8.728.565-11.016 2.561-11.974 10.449-.995 8.192 2.366 14.794 8.554 16.805 5.008 1.628 12.304 2.053 19.984 1.165l4.165-.482 1.537 1.779c2.049 2.372 2.215 3.028 1.072 4.252-1.876 2.008-2.463 2.113-8.148 1.454-9.834-1.14-22.346.139-24.735 2.529-2.554 2.553-2.38-3.953-2.523 94.545-.071 49.17-.155 90.128-.186 91.019-.125 3.631 3.359 8.283 6.569 8.772.927.142 3.27.518 5.208.837 2.783.458 4.086.487 6.2.138 3.39-.56 11.523-.523 18.385.083l5.308.468 1.892-1.601c4.738-4.011 4.496-1.307 4.471-49.977-.023-44.945-.136-42.233 1.987-47.739l.694-1.8 18.17-.018c15.555-.016 18.602-.116 21.17-.694 1.65-.371 4.609-.955 6.576-1.297 8.696-1.512 12.59-3.133 14.849-6.181.84-1.134 1.905-1.898 3.736-2.684 3.785-1.623 5.871-3.155 7.301-5.361.733-1.132 2.006-2.398 2.994-2.977 2.056-1.204 3.711-3.498 5.189-7.19.752-1.878 1.706-3.342 3.073-4.717 5.372-5.4 6.283-10.118 6.268-32.481-.017-27.109-.591-30.627-5.8-35.587-1.16-1.105-2.16-2.684-3.175-5.013-3.328-7.635-3.414-7.758-6.839-9.745-2.276-1.321-4.549-3.474-6.349-6.015-1.242-1.752-3.798-2.978-8.058-3.865-5.208-1.084-8.15-2.426-9.786-4.461-3.319-4.13-5.004-4.279-49.779-4.409-20.02-.058-37.12-.058-38-.001m79.039 1.686c5.648 1.165 5.38 1.055 7.709 3.149 2.445 2.199 5.711 3.733 9.86 4.633 4.544.986 6.67 2.154 9.235 5.074 1.233 1.405 3.303 3.263 4.6 4.129 3.732 2.493 4.792 3.689 6.181 6.97 2.547 6.017 3.144 7.08 4.982 8.855 4.892 4.727 5.361 7.734 5.38 34.461l.014 19.062-1.435 4.138c-1.633 4.708-2.274 5.868-5.007 9.06-1.073 1.254-1.952 2.437-1.954 2.63-.019 1.865-3.368 6.98-5.764 8.803-1.078.82-2.323 1.976-2.767 2.569-1.953 2.606-3.497 3.864-6.777 5.52-2.091 1.056-4.319 2.566-5.522 3.745-5.471 5.356-17.147 7.395-41.824 7.303-19.667-.073-17.914-.411-19.273 3.709-1.603 4.857-1.622 5.408-1.661 47.696-.021 22.713-.139 41.613-.262 42-.707 2.218-2.413 5.007-3.632 5.937l-1.401 1.068-10.261-.136c-5.643-.075-12.33-.086-14.86-.025-9.758.236-13.058-1.039-15.407-5.955l-1.142-2.388.487-4.699c.368-3.55.473-25.028.428-87.898-.066-94.038-.199-89.321 2.61-92.285 2.582-2.724 13.901-3.747 26.024-2.352 2.658.306 2.893.264 4.631-.818 3.379-2.104 3.392-3.388.069-7.132l-1.578-1.779-5.161.492c-15.064 1.435-23.103-1.613-26.393-10.007l-.944-2.409.786-4.655c.432-2.56.787-4.7.788-4.755.036-1.679 4.763-3.901 9.773-4.593 4.849-.671 75.754.117 79.468.883M317.8 128.444c-2.64.136-6.84.272-9.333.302l-4.534.054-1.322 1.362-1.323 1.362-.272 6.138c-.149 3.376-.2 13.898-.111 23.381l.16 17.244.941 1.556c2.293 3.792 1.196 3.459 11.856 3.597 7.742.1 9.716.012 10.897-.483.792-.333 2.93-.954 4.749-1.38 7.984-1.867 13.157-6.674 15.669-14.557 1.023-3.213 1.729-4.702 3.094-6.525l.977-1.305-1.197-3.695a2861.2 2861.2 0 0 1-2.924-9.106c-2.238-7.012-2.477-7.295-7.81-9.256-5.07-1.864-6.126-2.478-8.505-4.952-3.171-3.297-5.333-4.031-11.012-3.737m6.516 1.115c1.589.813 2.893 2.002 4.466 4.073 1.108 1.458 4.283 3.029 8.818 4.361 3.406 1.001 4.939 2.207 5.519 4.344.218.805.884 3.083 1.479 5.063a157.34 157.34 0 0 1 1.843 6.727c.418 1.72.941 3.466 1.163 3.88.315.588.102 1.304-.972 3.273-.756 1.386-1.651 3.601-1.989 4.923-2.907 11.37-11.326 15.861-30.185 16.101-10.775.137-10.255.252-11.87-2.637l-1.038-1.857.037-22.346c.047-28.667-.999-25.964 10.173-26.281 4.202-.119 8.412-.254 9.356-.3 1.044-.05 2.297.214 3.2.676" fill="#8f5a8e"/><path d="M265.371 90.707c-5.01.692-9.737 2.914-9.773 4.593-.001.055-.356 2.195-.788 4.755l-.786 4.655.944 2.409c3.29 8.394 11.329 11.442 26.393 10.007l5.161-.492 1.578 1.779c3.323 3.744 3.31 5.028-.069 7.132-1.738 1.082-1.973 1.124-4.631.818-12.123-1.395-23.442-.372-26.024 2.352-2.809 2.964-2.676-1.753-2.61 92.285.045 62.87-.06 84.348-.428 87.898l-.487 4.699 1.142 2.388c2.349 4.916 5.649 6.191 15.407 5.955 2.53-.061 9.217-.05 14.86.025l10.261.136 1.401-1.068c1.219-.93 2.925-3.719 3.632-5.937.123-.387.241-19.287.262-42 .039-42.288.058-42.839 1.661-47.696 1.359-4.12-.394-3.782 19.273-3.709 24.677.092 36.353-1.947 41.824-7.303 1.203-1.179 3.431-2.689 5.522-3.745 3.28-1.656 4.824-2.914 6.777-5.52.444-.593 1.689-1.749 2.767-2.569 2.396-1.823 5.745-6.938 5.764-8.803.002-.193.881-1.376 1.954-2.63 2.733-3.192 3.374-4.352 5.007-9.06l1.435-4.138-.014-19.062c-.019-26.727-.488-29.734-5.38-34.461-1.838-1.775-2.435-2.838-4.982-8.855-1.389-3.281-2.449-4.477-6.181-6.97-1.297-.866-3.367-2.724-4.6-4.129-2.565-2.92-4.691-4.088-9.235-5.074-4.149-.9-7.415-2.434-9.86-4.633-2.329-2.094-2.061-1.984-7.709-3.149-3.714-.766-74.619-1.554-79.468-.883m78.986 1.662c4.31.901 5.921 1.52 6.84 2.627 1.024 1.234 5.813 3.753 8.381 4.408 7.604 1.941 8.571 2.406 11.22 5.394 1.359 1.532 3.67 3.585 5.136 4.562 3.499 2.331 4.632 3.581 5.655 6.24.466 1.21 1.092 2.74 1.391 3.4.299.66.813 1.83 1.143 2.6.329.77 1.628 2.462 2.887 3.761 4.68 4.829 4.99 6.893 4.99 33.217v19.01l-1.18 3.553c-1.23 3.7-2.312 5.7-5.042 9.313-.892 1.18-2.293 3.573-3.113 5.316-2.133 4.532-9.797 12.182-14.647 14.621-1.79.9-4.312 2.609-5.605 3.797-2.474 2.275-4.157 2.986-10.213 4.315-9.183 2.014-12.881 2.282-31.638 2.29-18.178.008-16.873-.178-18.265 2.607-1.873 3.749-1.897 4.362-1.897 48.511v41.553l-.929 2.283c-.511 1.256-1.546 2.955-2.3 3.775l-1.371 1.492-15.4-.085c-18.4-.101-20.74-.327-22.653-2.18-2.715-2.632-3.103-4.099-2.665-10.082.234-3.202.341-37.1.272-86.467-.127-90.736-.154-89.599 2.207-92.251 2.65-2.976 10.698-4.096 22.64-3.149l6.58.522 1.547-1.072c1.906-1.321 3.272-2.854 3.272-3.672 0-1.887-4.703-7.254-5.94-6.78-1.868.717-17.562.229-19.707-.613-10.582-4.152-12.215-7.102-9.885-17.864.685-3.163 2.185-4.398 6.374-5.243 5.807-1.172 76.113-.922 81.915.291m-35.169 35.614c-4.607.185-5.561.336-6.414 1.017-2.509 2.002-2.374.524-2.374 26.01v23.233l.994 1.978c.547 1.089 1.402 2.464 1.9 3.056l.906 1.077 9.4.1c9.209.099 9.457.08 12.2-.922 1.54-.563 3.79-1.248 5-1.524 7.148-1.627 11.881-6.09 14.771-13.93 1.49-4.04 2.025-5.087 3.762-7.363l1.367-1.791-.81-1.762c-.445-.969-1.94-5.125-3.323-9.235-2.989-8.887-3.367-9.418-7.928-11.136-5.617-2.116-6.377-2.534-9.067-4.991-4.879-4.455-4.812-4.442-20.384-3.817m19.624 4.198c2.379 2.474 3.435 3.088 8.505 4.952 5.333 1.961 5.572 2.244 7.81 9.256a2861.2 2861.2 0 0 0 2.924 9.106l1.197 3.695-.977 1.305c-1.365 1.823-2.071 3.312-3.094 6.525-2.512 7.883-7.685 12.69-15.669 14.557-1.819.426-3.957 1.047-4.749 1.38-1.181.495-3.155.583-10.897.483-10.66-.138-9.563.195-11.856-3.597l-.941-1.556-.16-17.244c-.089-9.483-.038-20.005.111-23.381l.272-6.138 1.323-1.362 1.322-1.362 4.534-.054c2.493-.03 6.693-.166 9.333-.302 5.679-.294 7.841.44 11.012 3.737" fill="#9b699a"/><path d="M229.868 63.639c-2.338 1.455-4.937 4.177-5.261 5.509-.14.579-.946 2.492-1.789 4.252-1.42 2.961-1.556 3.558-1.828 8-.161 2.64-.535 5.7-.832 6.8-.296 1.1-.997 3.89-1.556 6.2-.56 2.31-1.182 4.83-1.383 5.6-.201.77-.639 2.608-.973 4.085-1.24 5.484-4.798 10.347-9.404 12.854l-2.072 1.127-3.918-1.033c-4.712-1.243-5.618-1.27-7.649-.234-.862.439-2.559 1.17-3.773 1.624-1.213.454-3.046 1.586-4.073 2.515l-1.866 1.69.754 1.338c1.396 2.475 1.583 2.747 3.365 4.894 2.72 3.276 4.977 5.413 7.287 6.899 4.209 2.708 4.761 3.856 4.264 8.858-.572 5.756-1 6.881-4.022 10.574-.627.765-1.139 1.561-1.139 1.769 0 .207-.256.661-.568 1.009-.312.347-.957 2.701-1.433 5.231-.989 5.259-1.829 7.484-4.274 11.319-1.851 2.903-1.737 2.424-3.525 14.881-1.087 7.57-.53 21.582 1.025 25.784 4.048 10.936 6.192 12.919 15.362 14.201 2.632.368 5.782 1.032 7 1.476 5.901 2.153 6.752 2.147 8.3-.064.923-1.317 5.992-3.62 7.545-3.427.703.087 4.866.288 9.251.446l7.974.287 1.231-1.494c.678-.822 1.565-2.116 1.972-2.876l.74-1.383-1.603-3.05c-2.233-4.251-6.791-4.918-15.597-2.283-8.086 2.42-13.62 2.353-21.517-.26-4.994-1.652-6.517-7.013-6.126-21.557.323-11.991 1.495-16.785 5.769-23.6 1.339-2.135 1.998-3.884 2.485-6.6 1.483-8.262 3.129-14.557 4.392-16.8.818-1.451 4.425-7.096 5.687-8.9 1.564-2.235 4.19-3.164 9.801-3.469a48.47 48.47 0 0 0 12.372-2.267c.838-.266 1.482-.861 1.91-1.764 1.55-3.265 5.82-6.2 9.021-6.2 2.126 0 2.857-.72 3.07-3.024.339-3.658.401-3.776 1.986-3.776 1.156 0 1.387-.126 1.188-.645-.172-.449-.074-.578.324-.425.436.167.379-.222-.245-1.656-1.718-3.948-2.944-4.308-3.317-.974-.142 1.265-.323 2.509-.403 2.765-.194.621-4.709 1.077-7.644.772-1.294-.135-5.011-.434-8.259-.665-6.548-.466-7.268-.785-8.316-3.684-.531-1.467.039-10.367.753-11.76.206-.4.742-1.538 1.192-2.528.451-.99 1.529-3.33 2.396-5.2 1.767-3.811 4.081-9.729 4.081-10.44 0-.256.877-2.016 1.949-3.913 1.893-3.348 3.251-8.28 3.251-11.81 0-1.916-2.213-3.767-5.6-4.684-5.728-1.551-5.744-1.551-7.732-.314m-6.518 40.811c.138.688.25 2.026.25 2.976 0 1.692 1.9 2.527 2.84 1.247.132-.179.36.991.507 2.6.467 5.121 2.173 8.428 5.253 10.183.832.474-2.409 4.144-3.661 4.144-.743 0-2.56 1.994-4.636 5.087-1.339 1.997-2.218 2.905-2.999 3.1-2.658.663-5.653 3.676-6.328 6.367-.149.593-.924 1.565-1.723 2.162-.799.596-1.801 1.399-2.228 1.784-.806.727-1.506.886-1.95.442-.142-.143-.841-.305-1.554-.361-.712-.056-1.36-.299-1.441-.541-.26-.78-.879-.468-.914.46-.032.824-.062.811-.353-.153-.175-.579-.655-1.421-1.066-1.871-1.48-1.622-1.747-2.055-1.747-2.833 0-.435-.158-1.208-.351-1.717-.313-.824-.89-3.864-.936-4.926-.043-1.005.857-9.675 1.236-11.9.028-.165.821-.3 1.762-.3 3.599 0 11.053-5.077 13.959-9.507.66-1.005.989-1.157 3.13-1.445 1.035-.139 1.129-.386 1.804-4.748.283-1.826.808-1.94 1.146-.25m-175.244 5.344c-2.457 1.068-4.16 2.75-5.354 5.287-.642 1.365-1.347 2.592-1.567 2.728-.951.588-2.602 4.783-3.854 9.791-1.453 5.811-2.975 9.489-4.72 11.4-.913 1.001-2.53 4.083-4.198 8-.649 1.526-.789 2.219-1.42 7.051-.655 5.022-1.261 6.738-4.286 12.149-.738 1.32-2.201 5.01-3.252 8.2-1.896 5.757-4.78 11.814-6.407 13.455-3.589 3.621-4.874 10.14-4.527 22.964.386 14.253 1.099 15.496 9.395 16.355 12.403 1.284 17.518.26 21.884-4.382 1.624-1.726 5.361-4.24 8.345-5.612 1.666-.766 3.263-1.964 4.969-3.728 1.45-1.498 3.821-3.356 5.6-4.388 3.011-1.746 4.902-3.426 6.166-5.477.344-.557 2.069-1.791 3.834-2.741 1.765-.95 4.261-2.711 5.547-3.914 1.295-1.21 3.857-2.974 5.739-3.95 1.87-.969 4.12-2.303 5-2.964.88-.66 1.967-1.366 2.416-1.567.448-.202 1.675-1.374 2.726-2.604 3.447-4.034 5.173-5.203 6.863-4.645 3.034 1.001 4.266 3.418 3.173 6.227-2.633 6.77-4.261 24.41-2.637 28.571.473 1.21 1.052 3.264 1.289 4.565.83 4.576 2.958 6.295 9.929 8.024 10.204 2.53 29.185-.344 33.556-5.081.984-1.066.778-2.388-.965-6.217l-.596-1.309-6.477.171c-3.593.094-7.625.432-9.056.757-3.341.76-4.093.365-9.221-4.851-4.388-4.463-6-6.495-6-7.566 0-.87 2.379-6.503 3.127-7.405 1.26-1.518 3.096-7.398 5.495-17.597 1.443-6.139 2.446-8.707 4.409-11.291 2.263-2.979 3.434-5.229 5.05-9.706.989-2.739 1.704-3.969 3.307-5.694 2.093-2.252 3.497-3.899 5.612-6.586.66-.838 2.26-2.714 3.555-4.169 1.295-1.455 2.815-3.275 3.377-4.045.562-.77 1.213-1.58 1.445-1.8.233-.22 1.041-1.3 1.797-2.4.756-1.1 2.466-3.176 3.8-4.613 3.858-4.157 4.353-5.49 3.889-10.477-.844-9.045-4.374-10.512-10.694-4.444-1.337 1.284-3.047 2.765-3.8 3.292-1.313.918-4.369 4.456-4.369 5.057 0 .548-2.892 4.314-4.081 5.314-.655.551-1.579 1.579-2.055 2.283-.475.704-1.512 2.256-2.303 3.447-.792 1.192-2.607 3.192-4.035 4.445-1.873 1.645-3.015 3.08-4.106 5.163-1.794 3.425-6.183 8.989-7.959 10.091-2.078 1.29-5.01 2.641-5.759 2.655-.903.016-1.722.621-4.902 3.621-1.43 1.349-3.77 3.198-5.2 4.109-1.606 1.024-3.134 2.417-4 3.646-2.041 2.899-3.636 4.312-5.844 5.18-1.076.424-3.006 1.594-4.29 2.6-3.008 2.36-6.056 4.597-8.042 5.901-.866.57-3.258 2.677-5.315 4.683-2.345 2.286-4.928 4.338-6.926 5.5-1.752 1.019-4.438 3.034-5.969 4.478-2.354 2.22-3.204 2.751-5.503 3.436-2.929.872-7.128 3.194-7.983 4.414-.29.414-1.382 1.068-2.427 1.453-1.046.386-2.185.941-2.532 1.234-.348.293-.798.534-1 .536-.203.003-1.147.748-2.097 1.657l-1.729 1.653-1.071-.793c-2.379-1.76-3.014-7.948-1.838-17.909.311-2.633.566-4.997.566-5.252 0-.255.828-1.52 1.84-2.812 2.68-3.421 3.521-5.565 5.154-13.148 1.456-6.759 3.039-11.129 4.656-12.852.44-.469 2.062-3.979 3.605-7.8 1.542-3.822 3.044-7.218 3.338-7.548.293-.33.743-1.389.999-2.353.257-.964.626-2.044.82-2.4.194-.356.641-1.727.993-3.047s.919-3.008 1.26-3.75c1.631-3.55 2.775-8.589 3.082-13.575l.205-3.325-1.446-1.601c-2.387-2.642-3.752-3.133-6-2.155m66.178 46.456c-.138.137.066.542.452.9.386.357.439.47.117.25-.494-.339-.512-.266-.116.478.257.482.674 1.005.927 1.162.303.187.35.106.136-.24-.201-.325-.166-.426.09-.268.227.141.511.629.63 1.085.178.68.115.744-.351.357-.754-.625-.725.025.049 1.13.463.661.513 1.078.2 1.663-.549 1.025-.527 1.25.096 1.011.311-.12.515.111.515.583 0 .429-.142.693-.315.586-.377-.233-.395-.024-.072.818.133.347.395.535.583.419.357-.22.135 2.433-.256 3.066-.123.2-.373.271-.555.159-.39-.241-.802.701-.842 1.924-.027.839-.039.841-.372.067-.331-.771-.345-.769-.372.076-.015.482-.208.988-.428 1.124-.22.136-.4 1.407-.4 2.824 0 2.514-.624 3.536-1.084 1.776-.115-.44-.368-.8-.563-.8-.194 0-.353.36-.353.8 0 .44-.18.8-.4.8-.22 0-.4.39-.4.867 0 .476-.121.746-.268.598-.147-.147-.707.469-1.244 1.37-1.211 2.03-1.749 1.647-2.004-1.426-.153-1.846-.428-2.493-1.634-3.851l-1.45-1.632-2.094.796c-1.151.438-2.642 1.258-3.312 1.821-.669.564-1.887 1.133-2.706 1.264-.818.132-1.874.317-2.345.413-.855.173-.577-2.319.364-3.26.161-.161.293-.619.293-1.017 0-.399.448-1.018.997-1.378.548-.359.891-.822.763-1.03-.128-.207.324-.587 1.004-.844.681-.257 1.34-.788 1.464-1.179.124-.392.494-.712.823-.712.328 0 .488-.175.356-.388-.132-.214.218-.503.777-.644.559-.14 1.016-.415 1.016-.611 0-.197.19-.357.422-.357.233 0 1.481-.525 2.775-1.167 1.619-.803 2.282-.984 2.127-.58-.184.48 2.912-.896 3.843-1.708.5-.436-.436-.54-1.233-.138-.536.271-.176-.237.846-1.194 1.209-1.132 1.626-1.762 1.299-1.964-.355-.219-.295-.5.228-1.073.39-.427.701-1.046.691-1.376-.01-.33.256-.819.592-1.087.638-.51 1.125-.694.694-.263m8.429 3.171c-.082.081-.549.042-1.04-.086l-.892-.233.909-.851.91-.851.13.937c.072.515.064 1.003-.017 1.084M105.086 176.9c.25.326.214.824-.105 1.433l-.488.933-.846-.908c-.974-1.045-1.049-1.41-.347-1.693.867-.35 1.39-.281 1.786.235m-79.322 24.7c.383 7.217.687 9.918 1.191 10.595.7.938 4.624 1.547 5.411.84 1.035-.93 7.707-4.295 7.978-4.025.137.138-.05.418-.416.622-.366.205-.792.951-.948 1.657-1.031 4.696-4.904 6.959-11.62 6.788l-4.833-.122-1.927-1.696c-3.603-3.17-3.869-13.38-.424-16.239.351-.292.924-1.132 1.273-1.867.499-1.051.853-1.319 1.654-1.253.598.05 1.197-.197 1.449-.596.697-1.105.924-.112 1.212 5.296" fill="#da20d6"/><path d="M262.442 92.078c-4.189.845-5.689 2.08-6.374 5.243-2.33 10.762-.697 13.712 9.885 17.864 2.145.842 17.839 1.33 19.707.613 1.237-.474 5.94 4.893 5.94 6.78 0 .818-1.366 2.351-3.272 3.672l-1.547 1.072-6.58-.522c-11.942-.947-19.99.173-22.64 3.149-2.361 2.652-2.334 1.515-2.207 92.251.069 49.367-.038 83.265-.272 86.467-.438 5.983-.05 7.45 2.665 10.082 1.913 1.853 4.253 2.079 22.653 2.18l15.4.085 1.371-1.492c.754-.82 1.789-2.519 2.3-3.775l.929-2.283v-41.553c0-44.149.024-44.762 1.897-48.511 1.392-2.785.087-2.599 18.265-2.607 18.757-.008 22.455-.276 31.638-2.29 6.056-1.329 7.739-2.04 10.213-4.315 1.293-1.188 3.815-2.897 5.605-3.797 4.85-2.439 12.514-10.089 14.647-14.621.82-1.743 2.221-4.136 3.113-5.316 2.73-3.613 3.812-5.613 5.042-9.313l1.18-3.553v-19.01c0-26.324-.31-28.388-4.99-33.217-1.259-1.299-2.558-2.991-2.887-3.761-.33-.77-.844-1.94-1.143-2.6-.299-.66-.925-2.19-1.391-3.4-1.023-2.659-2.156-3.909-5.655-6.24-1.466-.977-3.777-3.03-5.136-4.562-2.649-2.988-3.616-3.453-11.22-5.394-2.568-.655-7.357-3.174-8.381-4.408-.919-1.107-2.53-1.726-6.84-2.627-5.802-1.213-76.108-1.463-81.915-.291m75.497.506c4.451.321 11.402 2.257 12.861 3.581 2.026 1.839 5.246 3.259 10.983 4.846 3.773 1.044 6.246 2.504 8.569 5.061 1.184 1.303 3.62 3.336 5.415 4.518 3.509 2.31 3.166 1.818 6.273 9.01 1.353 3.131 2.376 4.733 4.247 6.656 4.579 4.704 4.913 6.963 4.913 33.225 0 20.706-.429 22.931-5.655 29.369-.96 1.183-2.087 2.96-2.505 3.95-1.829 4.334-2.417 5.279-4.523 7.281-3.248 3.085-4.133 3.972-5.933 5.946-1.04 1.142-2.829 2.38-5.023 3.477-1.874.937-4.567 2.689-5.984 3.894-1.417 1.205-2.763 2.193-2.991 2.196-.228.004-1.758.457-3.4 1.008-6.823 2.289-11.248 2.688-32.074 2.89l-19.089.185-1.348 1.492c-3.119 3.453-3.094 3.048-3.21 50.941l-.103 42.184-1.381 2.289c-1.905 3.157-1.192 3.022-16.672 3.15-19.33.159-22.065-.296-24.447-4.064-1.179-1.865-1.181-1.877-.823-5.669.198-2.096.366-40.929.374-86.588.017-91.965-.021-90.475 2.381-92.689 2.597-2.396 5.81-2.923 17.806-2.923 12.171 0 12.132.008 14.763-3.065 1.029-1.202 1.374-1.923 1.202-2.51-.448-1.535-2.73-5.023-4.27-6.528l-1.532-1.497-9.681-.218-9.682-.218-3.967-1.68c-7.105-3.01-8.268-5.29-6.442-12.626 1.271-5.107 1.837-5.558 8.723-6.952 1.84-.372 66.967-.302 72.225.078M309.4 127.18c-6.726.247-7.29.433-8.881 2.937l-1.069 1.683.063 23.282.063 23.282 1.158 2.518c.636 1.385 1.677 2.991 2.312 3.57l1.154 1.052 9.378.207c9.127.202 9.431.183 11.4-.704 1.112-.502 4.095-1.559 6.629-2.35 8.526-2.662 12.31-6.326 14.777-14.31a19.867 19.867 0 0 1 4.36-7.547c1.468-1.598 1.452-1.903-.313-6-2.039-4.731-2.898-6.96-4.162-10.8-1.487-4.52-3.614-7.054-6.669-7.949-.99-.291-2.938-1.051-4.328-1.689-1.39-.639-2.674-1.162-2.853-1.162-.179 0-1.015-.763-1.858-1.696-4.241-4.694-5.287-4.908-21.161-4.324m15.728 1.32c.998.495 2.998 1.98 4.444 3.3 2.69 2.457 3.45 2.875 9.067 4.991 4.561 1.718 4.939 2.249 7.928 11.136 1.383 4.11 2.878 8.266 3.323 9.235l.81 1.762-1.367 1.791c-1.737 2.276-2.272 3.323-3.762 7.363-2.89 7.84-7.623 12.303-14.771 13.93-1.21.276-3.46.961-5 1.524-2.743 1.002-2.991 1.021-12.2.922l-9.4-.1-.906-1.077c-.498-.592-1.353-1.967-1.9-3.056l-.994-1.978V155.01c0-30.052-2.117-26.935 18.556-27.327 3.814-.073 4.582.029 6.172.817" fill="#aa7ba9"/><path d="M222.204 104.7c-.675 4.362-.769 4.609-1.804 4.748-2.141.288-2.47.44-3.13 1.445-2.906 4.43-10.36 9.507-13.959 9.507-.941 0-1.734.135-1.762.3-.379 2.225-1.279 10.895-1.236 11.9.046 1.062.623 4.102.936 4.926.193.509.351 1.282.351 1.717 0 .778.267 1.211 1.747 2.833.411.45.891 1.292 1.066 1.871.291.964.321.977.353.153.035-.928.654-1.24.914-.46.081.242.729.485 1.441.541.713.056 1.412.218 1.554.361.444.444 1.144.285 1.95-.442.427-.385 1.429-1.188 2.228-1.784.799-.597 1.574-1.569 1.723-2.162.675-2.691 3.67-5.704 6.328-6.367.781-.195 1.66-1.103 2.999-3.1 2.076-3.093 3.893-5.087 4.636-5.087 1.252 0 4.493-3.67 3.661-4.144-3.08-1.755-4.786-5.062-5.253-10.183-.147-1.609-.375-2.779-.507-2.6-.94 1.28-2.84.445-2.84-1.247 0-3.775-.947-5.625-1.396-2.726M113.59 156.513c-.336.268-.602.757-.592 1.087.01.33-.301.949-.691 1.376-.523.573-.583.854-.228 1.073.327.202-.09.832-1.299 1.964-1.022.957-1.382 1.465-.846 1.194.797-.402 1.733-.298 1.233.138-.931.812-4.027 2.188-3.843 1.708.155-.404-.508-.223-2.127.58-1.294.642-2.542 1.167-2.775 1.167-.232 0-.422.16-.422.357 0 .196-.457.471-1.016.611-.559.141-.909.43-.777.644.132.213-.028.388-.356.388-.329 0-.699.32-.823.712-.124.391-.783.922-1.464 1.179-.68.257-1.132.637-1.004.844.128.208-.215.671-.763 1.03-.549.36-.997.979-.997 1.378 0 .398-.132.856-.293 1.017-.941.941-1.219 3.433-.364 3.26a75.498 75.498 0 0 1 2.345-.413c.819-.131 2.037-.7 2.706-1.264.67-.563 2.161-1.383 3.312-1.821l2.094-.796 1.45 1.632c1.206 1.358 1.481 2.005 1.634 3.851.255 3.073.793 3.456 2.004 1.426.537-.901 1.097-1.517 1.244-1.37.147.148.268-.122.268-.598 0-.477.18-.867.4-.867.22 0 .4-.36.4-.8 0-.44.159-.8.353-.8.195 0 .448.36.563.8.46 1.76 1.084.738 1.084-1.776 0-1.417.18-2.688.4-2.824.22-.136.413-.642.428-1.124.027-.845.041-.847.372-.076.333.774.345.772.372-.067.04-1.223.452-2.165.842-1.924.182.112.432.041.555-.159.391-.633.613-3.286.256-3.066-.188.116-.45-.072-.583-.419-.323-.842-.305-1.051.072-.818.173.107.315-.157.315-.586 0-.472-.204-.703-.515-.583-.623.239-.645.014-.096-1.011.313-.585.263-1.002-.2-1.663-.774-1.105-.803-1.755-.049-1.13.466.387.529.323.351-.357-.119-.456-.403-.944-.63-1.085-.256-.158-.291-.057-.09.268.214.346.167.427-.136.24-.253-.157-.67-.68-.927-1.162-.396-.744-.378-.817.116-.478.322.22.269.107-.117-.25-.386-.358-.59-.763-.452-.9.431-.431-.056-.247-.694.263m8.1 1.738l-.909.851.892.233c1.103.289 1.221.178 1.057-.998l-.13-.937-.91.851m-97.138 38.053c-.252.399-.851.646-1.449.596-.801-.066-1.155.202-1.654 1.253-.349.735-.922 1.575-1.273 1.867-3.445 2.859-3.179 13.069.424 16.239l1.927 1.696 4.833.122c6.716.171 10.589-2.092 11.62-6.788.156-.706.582-1.452.948-1.657.366-.204.553-.484.416-.622-.271-.27-6.943 3.095-7.978 4.025-.787.707-4.711.098-5.411-.84-.504-.677-.808-3.378-1.191-10.595-.288-5.408-.515-6.401-1.212-5.296" fill="#eb16e7"/><path d="M265.714 92.506c-6.886 1.394-7.452 1.845-8.723 6.952-1.826 7.336-.663 9.616 6.442 12.626l3.967 1.68 9.682.218 9.681.218 1.532 1.497c1.54 1.505 3.822 4.993 4.27 6.528.172.587-.173 1.308-1.202 2.51-2.631 3.073-2.592 3.065-14.763 3.065-11.996 0-15.209.527-17.806 2.923-2.402 2.214-2.364.724-2.381 92.689-.008 45.659-.176 84.492-.374 86.588-.358 3.792-.356 3.804.823 5.669 2.382 3.768 5.117 4.223 24.447 4.064 15.48-.128 14.767.007 16.672-3.15l1.381-2.289.103-42.184c.116-47.893.091-47.488 3.21-50.941l1.348-1.492 19.089-.185c20.826-.202 25.251-.601 32.074-2.89 1.642-.551 3.172-1.004 3.4-1.008.228-.003 1.574-.991 2.991-2.196s4.11-2.957 5.984-3.894c2.194-1.097 3.983-2.335 5.023-3.477 1.8-1.974 2.685-2.861 5.933-5.946 2.106-2.002 2.694-2.947 4.523-7.281.418-.99 1.545-2.767 2.505-3.95 5.226-6.438 5.655-8.663 5.655-29.369 0-26.262-.334-28.521-4.913-33.225-1.871-1.923-2.894-3.525-4.247-6.656-3.107-7.192-2.764-6.7-6.273-9.01-1.795-1.182-4.231-3.215-5.415-4.518-2.323-2.557-4.796-4.017-8.569-5.061-5.737-1.587-8.957-3.007-10.983-4.846-1.459-1.324-8.41-3.26-12.861-3.581-5.258-.38-70.385-.45-72.225-.078m70.886 1.109c5.989.607 8.316 1.26 12.246 3.437 4.219 2.337 5.988 3.094 8.754 3.744 5.512 1.297 8.762 3.025 11.978 6.367 2.025 2.105 3.822 3.542 5.446 4.356 2.881 1.445 3.064 1.642 4.154 4.482.464 1.209 1.006 2.559 1.205 2.999 2.446 5.422 3.044 6.4 5.084 8.322 4.386 4.135 4.533 5.146 4.533 31.285v19.68l-1.389 3.006c-.764 1.654-2.164 3.974-3.112 5.157-2.464 3.073-2.956 3.941-3.908 6.885-.984 3.047-3.007 5.886-5.164 7.248-.834.527-1.947 1.53-2.472 2.23-2.315 3.084-4.372 4.68-7.931 6.155-2.666 1.105-3.966 1.914-5.16 3.209-1.306 1.417-2.239 1.953-5.13 2.947-7.816 2.687-14.037 3.276-34.61 3.276h-17.096l-1.438 1.262c-3.841 3.373-3.803 2.865-3.904 52.338l-.086 41.8-1.495 2.3-1.495 2.3-14.305-.001c-23.397-.002-24.945-.56-24.091-8.678.27-2.563.413-32.669.413-86.921 0-96.249-.252-90.28 3.888-92.119 4.107-1.824 5.231-1.956 15.655-1.839l9.83.11 2.075-1.07c1.923-.992 3.421-2.508 4.442-4.494.327-.638.164-1.412-.762-3.6-1.238-2.926-1.91-3.832-4.671-6.288l-1.686-1.5h-8.987c-8.6 0-9.078-.041-11.099-.95a52.039 52.039 0 0 0-4.306-1.663c-4.286-1.394-5.287-3.37-4.227-8.34 1.115-5.227 2.832-6.61 9.92-7.989 1.589-.309 65.449.207 68.901.557m-26 32.742c-8.919.271-9.25.362-10.772 2.959l-.997 1.701-.042 23.792c-.036 20.58.042 24.026.58 25.529.933 2.605 2.161 4.512 3.858 5.986l1.524 1.324 4.124-.376c2.867-.261 5.637-.23 9.082.102 4.847.468 4.98.459 6-.388 1.114-.925 6.526-3.114 8.843-3.577 6.932-1.385 12.061-6.424 14.217-13.969.699-2.443 2.703-6.228 3.56-6.723 3.03-1.748 3.046-4.554.059-10.865-2.764-5.843-3.304-7.113-4.078-9.594-.942-3.019-3.153-5.563-5.665-6.515-4.032-1.528-7.253-3.353-9.722-5.51-4.587-4.006-6.205-4.311-20.571-3.876m13.997 1.063c2.341.795 4.048 1.963 5.964 4.084.843.933 1.679 1.696 1.858 1.696.179 0 1.463.523 2.853 1.162 1.39.638 3.338 1.398 4.328 1.689 3.055.895 5.182 3.429 6.669 7.949 1.264 3.84 2.123 6.069 4.162 10.8 1.765 4.097 1.781 4.402.313 6a19.867 19.867 0 0 0-4.36 7.547c-2.467 7.984-6.251 11.648-14.777 14.31-2.534.791-5.517 1.848-6.629 2.35-1.969.887-2.273.906-11.4.704l-9.378-.207-1.154-1.052c-.635-.579-1.676-2.185-2.312-3.57l-1.158-2.518-.063-23.282-.063-23.282 1.069-1.683c1.591-2.504 2.155-2.69 8.881-2.937 11.693-.43 13.299-.405 15.197.24" fill="#b497b4"/><path d="M281.5 93.499c3.355.067 8.845.067 12.2 0 3.355-.067.61-.121-6.1-.121s-9.455.054-6.1.121m39.8-.023c.385.1 1.015.1 1.4 0 .385-.101.07-.183-.7-.183s-1.085.082-.7.183m29.1 4.715c0 .861 10.885 4.657 11.524 4.018.156-.156-2.844-1.084-5.324-1.648-.66-.15-2.325-.776-3.7-1.392-1.375-.615-2.5-1.056-2.5-.978m-57.446 22.018c1.054 2.591 1.017 2.825-.856 5.333-.588.786-2.015 1.82-3.45 2.499-1.346.637-2.127 1.159-1.735 1.159 2.133.001 5.61-2.706 7.039-5.479.452-.876-.59-4.487-1.589-5.509-.209-.214.057.685.591 1.997m88.052 1.191c.574 1.54 1.503 3.25 2.065 3.8l1.02 1-1.019-1.6c-.561-.88-1.329-2.41-1.706-3.4-.377-.99-.848-1.98-1.046-2.2-.197-.219.111.861.686 2.4m-79.421 5.1c-3.504 1.767-3.375.75-3.451 27.3-.081 27.996-.044 28.287 4.16 32.978l1.842 2.056 5.832-.235c3.208-.13 7.362-.087 9.232.094 3.341.323 6.4-.59 6.4-1.909 0-.488 5.554-2.653 8.173-3.187 6.937-1.414 11.548-5.75 13.205-12.417.976-3.929 2.137-6.139 4.07-7.756 3.868-3.233 3.591-9.301-.639-14.024-.394-.44-1.371-2.51-2.172-4.6-2.9-7.567-3.492-8.276-8.637-10.335-4.713-1.887-5.641-2.436-8.2-4.858-3.904-3.695-5.289-4.007-17.793-4.007-9.821 0-10.31.037-12.022.9m24.815.643c1.269.487 3.288 1.795 4.771 3.09 2.469 2.157 5.69 3.982 9.722 5.51 2.512.952 4.723 3.496 5.665 6.515.774 2.481 1.314 3.751 4.078 9.594 2.987 6.311 2.971 9.117-.059 10.865-.857.495-2.861 4.28-3.56 6.723-2.156 7.545-7.285 12.584-14.217 13.969-2.317.463-7.729 2.652-8.843 3.577-1.02.847-1.153.856-6 .388-3.445-.332-6.215-.363-9.082-.102l-4.124.376-1.524-1.324c-1.697-1.474-2.925-3.381-3.858-5.986-.538-1.503-.616-4.949-.58-25.529l.042-23.792.997-1.701c1.522-2.597 1.853-2.688 10.772-2.959 10.88-.33 13.19-.215 15.8.786m63.14 28.275l.14 21.219-1.24 3.513c-1.589 4.503-1.547 4.767.174 1.096l1.386-2.954-.035-20.046c-.019-11.025-.154-20.946-.3-22.046-.146-1.1-.202 7.548-.125 19.218m-6.118 33.065c-.855.998-1.756 2.703-2.215 4.187-1.101 3.566-1.777 4.703-3.685 6.205-2.467 1.941-5.122 4.663-5.122 5.25 0 .775-3.754 3.473-5.478 3.936-2.025.544-4.491 2.003-5.722 3.386-.982 1.103-.974 1.102.431-.089.787-.667 2.89-1.8 4.672-2.519 3.234-1.304 5.369-2.985 7.652-6.026.525-.7 1.638-1.703 2.472-2.23 2.157-1.362 4.18-4.201 5.164-7.248.883-2.731 1.607-4.114 2.953-5.635.437-.495.688-.9.557-.9-.131 0-.887.757-1.679 1.683m-59.893 29.11c-22.395.233-20.794-.004-23.236 3.447-2.144 3.029-2.26 5.674-2.283 51.707-.011 22.74-.135 41.55-.274 41.8-.139.249-.002.219.305-.067.471-.438.573-7.144.645-42.4.101-49.562.062-49.044 3.904-52.418l1.438-1.262 17.486-.034c11.764-.023 18.729-.202 21.286-.546 2.09-.281 3.08-.494 2.2-.473-.88.021-10.542.132-21.471.246M268.4 318c-1.43.144 3.88.265 11.8.269 9.051.004 13.137-.104 11-.291-4.09-.359-19.162-.344-22.8.022" fill="#bcabbc"/><path d="M267.8 92.986a552.8 552.8 0 0 1-4.116 1.251c-4.403 1.328-4.844 1.835-5.905 6.81-1.06 4.97-.059 6.946 4.227 8.34a52.039 52.039 0 0 1 4.306 1.663c2.021.909 2.499.95 11.099.95h8.987l1.68 1.5c3.389 3.026 5.084 5.462 6.083 8.742.41 1.347-1.982 4.551-4.361 5.841l-2 1.085-10.04-.247c-10.808-.265-12.019-.134-16.245 1.754-4.14 1.85-3.888-4.121-3.888 92.125 0 54.324-.143 84.357-.413 86.927-.83 7.884-.757 7.912 20.786 8.089 8.69.072 16.247.187 16.793.257.834.107 1.169-.2 2.095-1.916l1.102-2.043.02-41.357c.025-51.296.003-51.043 4.764-54.251l1.344-.906 18.841-.008c26.041-.011 34.846-1.202 37.372-5.055 1.181-1.802 3.771-3.618 6.181-4.333 2.124-.631 5.888-3.238 5.888-4.079 0-.587 2.655-3.309 5.122-5.25 1.919-1.51 2.583-2.636 3.712-6.292.637-2.063 1.285-3.109 3.178-5.132 2.091-2.236 2.551-3.039 3.827-6.696l1.45-4.155-.169-22c-.196-25.406.174-23.162-4.55-27.6l-2.981-2.8-1.823-5.2c-2.077-5.925-2.268-6.203-5.095-7.413-1.471-.63-3.064-1.905-5.496-4.398-3.718-3.811-4.24-4.067-11.775-5.781-2.815-.64-6.456-2.249-7.2-3.183-.22-.276-1.66-1.141-3.2-1.922-5.839-2.963-8.493-3.138-45.6-3.01-17.16.059-31.74-.016-32.4-.166-.66-.15-1.38-.213-1.6-.141m32.539 1.455c35.169-.092 39.566.108 42.064 1.913 2.496 1.803 9.258 4.587 13.197 5.432 5.767 1.238 8.083 2.167 9.847 3.95 2.978 3.008 6.166 5.614 8.276 6.765 3.032 1.652 3.337 2.074 5.677 7.863 2.387 5.904 2.932 6.875 4.437 7.913 4.797 3.306 4.735 2.921 4.751 29.723.014 22.839.096 22.197-3.3 25.559-2.745 2.718-4.387 5.902-5.693 11.041-.523 2.057-1.751 3.417-4.118 4.562-1.759.852-3.704 3.032-4.391 4.922-.327.9-3.407 3.116-4.331 3.116-1.336 0-5.036 1.606-6.402 2.779a617.48 617.48 0 0 1-2.831 2.413c-4 3.389-9.523 4.063-34.388 4.201l-19.465.108-1.713 1.15c-4.546 3.053-4.404 1.436-4.613 52.549-.205 50.349.187 45.984-4.134 46.025-36.505.343-35.679.506-34.784-6.857.299-2.456.476-15.539.522-38.543.051-25.462.215-36.474.61-40.958.43-4.871.444-6.847.067-9.6-.75-5.491-1.083-79.002-.366-80.903.298-.789 1.148-2.868 1.888-4.619l1.346-3.185 2.357-.914c2.23-.864 2.944-.917 13.254-.98 10.404-.063 10.972-.106 12.547-.948 6.024-3.223 5.624-10.295-.947-16.762-2.575-2.534-2.153-2.445-12.985-2.735l-8.282-.222-4.654-1.572c-6.312-2.131-6.994-3.622-3.4-7.427.831-.88 1.984-2.32 2.563-3.2 1.035-1.575 4.617-3.291 5.617-2.692.2.119 14.499.179 31.777.133m.866 30.798c-3.88.76-3.814.244-3.758 29.561.055 29.123.108 29.467 5.27 34.234l1.336 1.233 9.673.015c10.663.017 10.859-.02 13.024-2.486 1.5-1.708 2.853-2.324 7.474-3.402 8.174-1.905 11.29-4.706 13.346-11.994 1.706-6.048 1.712-6.06 3.614-7.442 3.42-2.484 4.566-4.992 3.837-8.391-.96-4.469-1.874-6.574-3.626-8.351-.929-.943-2.015-2.592-2.411-3.665-.397-1.073-.839-2.131-.983-2.351-.143-.22-.481-1.168-.749-2.107-.845-2.955-3.35-5.13-7.252-6.297-2.11-.631-4.111-1.906-6.137-3.913-2.366-2.344-5.647-4.111-8.711-4.692-2.519-.478-21.456-.44-23.947.048m25.217 1.229c1.958.659 3.155 1.413 4.978 3.139 2.559 2.422 3.487 2.971 8.2 4.858 5.145 2.059 5.737 2.768 8.637 10.335.801 2.09 1.778 4.16 2.172 4.6 4.23 4.723 4.507 10.791.639 14.024-1.933 1.617-3.094 3.827-4.07 7.756-1.657 6.667-6.268 11.003-13.205 12.417-2.619.534-8.173 2.699-8.173 3.187 0 1.319-3.059 2.232-6.4 1.909-1.87-.181-6.024-.224-9.232-.094l-5.832.235-1.842-2.056c-4.204-4.691-4.241-4.982-4.16-32.978.076-26.55-.053-25.533 3.451-27.3 2.689-1.356 20.835-1.38 24.837-.032" fill="#ccb5cc"/><path d="M266.099 94.745c-1.669.52-2.319.985-3.154 2.255-.579.88-1.732 2.32-2.563 3.2-3.594 3.805-2.912 5.296 3.4 7.427l4.654 1.572 8.282.222c10.832.29 10.41.201 12.985 2.735 6.571 6.467 6.971 13.539.947 16.762-1.575.842-2.143.885-12.547.948-10.31.063-11.024.116-13.254.98l-2.357.914-1.346 3.185c-.74 1.751-1.59 3.83-1.888 4.619-.717 1.901-.384 75.412.366 80.903.377 2.753.363 4.729-.067 9.6-.395 4.484-.559 15.496-.61 40.958-.046 23.004-.223 36.087-.522 38.543-.895 7.363-1.721 7.2 34.784 6.857 4.321-.041 3.929 4.324 4.134-46.025.209-51.113.067-49.496 4.613-52.549l1.713-1.15 19.465-.108c24.865-.138 30.388-.812 34.388-4.201a617.48 617.48 0 0 0 2.831-2.413c1.366-1.173 5.066-2.779 6.402-2.779.924 0 4.004-2.216 4.331-3.116.687-1.89 2.632-4.07 4.391-4.922 2.367-1.145 3.595-2.505 4.118-4.562 1.306-5.139 2.948-8.323 5.693-11.041 3.396-3.362 3.314-2.72 3.3-25.559-.016-26.802.046-26.417-4.751-29.723-1.505-1.038-2.05-2.009-4.437-7.913-2.34-5.789-2.645-6.211-5.677-7.863-2.11-1.151-5.298-3.757-8.276-6.765-1.764-1.783-4.08-2.712-9.847-3.95-3.939-.845-10.701-3.629-13.197-5.432-2.498-1.805-6.895-2.005-42.064-1.913-17.278.046-31.577-.014-31.777-.133-.199-.12-1.308.077-2.463.437m38.501.596l30 .066 3.231 1.262c1.777.694 3.923 1.731 4.769 2.305.846.574 2.542 1.316 3.769 1.649 1.227.333 3.491.953 5.031 1.377 1.54.423 3.97.894 5.4 1.045 3.932.414 5.048.939 6.728 3.165.827 1.095 2.088 2.35 2.804 2.79.715.44 2.145 1.475 3.177 2.3 1.032.825 2.066 1.5 2.299 1.5.545 0 5.792 5.111 5.792 5.642 0 .221.337 1.157.749 2.08s.967 2.607 1.232 3.743c.595 2.549 2.453 4.811 4.995 6.08 3.096 1.546 3.425 4.366 3.422 29.324-.003 20.314.186 19.272-4.125 22.809-2.053 1.684-3.703 5.102-4.532 9.385-.85 4.397-1.208 4.962-3.717 5.852-2.465.874-4.527 2.917-5.194 5.144-.547 1.825-1.778 3.1-3.03 3.139-1.472.046-6.162 1.485-7.287 2.236-.612.408-1.781 1.078-2.597 1.488-.816.41-2.127 1.457-2.912 2.326-2.71 3-3.924 3.138-30.604 3.482-22.991.296-22.117.198-24.44 2.734-2.71 2.959-2.538-.157-2.76 50.136-.173 39.328-.28 45.52-.796 46.3l-.596.9h-14.204c-13.735 0-16.205-.163-21.552-1.417-.974-.228-1.022-2.801-.074-3.963.188-.231.82-1.59 1.403-3.02l1.061-2.6-.453-5.6c-.556-6.884-.274-56.775.385-67.943.323-5.481.325-8.707.007-11.8-.24-2.341-.432-6.957-.427-10.257.006-3.3-.057-19.95-.139-37l-.149-31 1.567-4.07c.862-2.238 1.567-4.325 1.567-4.637 0-1.141 2.884-1.457 13.262-1.453 12.986.006 15.729-.639 17.132-4.026 1.562-3.77 1.737-1.311 1.98 27.786.225 26.773.242 27.237 1.108 29.533 2.823 7.48 3.473 7.798 16.147 7.903l9.829.081 1.919-1.125c1.056-.618 2.541-1.989 3.3-3.046 1.1-1.531 1.678-1.969 2.851-2.161 11.889-1.943 15.155-4.693 16.861-14.192.256-1.426.545-2.99.642-3.476.114-.572.772-1.146 1.872-1.633 6.747-2.984 6.868-16.383.189-20.803-1.498-.991-3.092-3.622-3.092-5.103 0-2.901-2.883-6.048-6.398-6.983-2.513-.669-4.702-1.853-4.972-2.688-.402-1.247-2.572-3.235-4.731-4.336-4.16-2.12-5.206-2.259-18.499-2.449-15.047-.216-14.745-.166-16.54-2.735-.763-1.093-1.539-2.047-1.724-2.12-.185-.074-.336-.464-.336-.867 0-1.169-2.74-6.061-4.305-7.687-2.403-2.495-2.91-2.605-13.495-2.922-7.76-.232-9.983-.426-11.6-1.014-1.1-.4-3.035-1.021-4.3-1.381-1.952-.554-3.124-1.396-1.943-1.396.921 0 4.381-3.762 5.643-6.136 1.586-2.983 1.627-3.001 6.2-2.758 1.76.093 16.7.199 33.2.235m20.552 29.85c3.064.581 6.345 2.348 8.711 4.692 2.026 2.007 4.027 3.282 6.137 3.913 3.902 1.167 6.407 3.342 7.252 6.297.268.939.606 1.887.749 2.107.144.22.586 1.278.983 2.351.396 1.073 1.482 2.722 2.411 3.665 5.068 5.141 4.97 12.978-.211 16.742-1.902 1.382-1.908 1.394-3.614 7.442-2.056 7.288-5.172 10.089-13.346 11.994-4.621 1.078-5.974 1.694-7.474 3.402-2.165 2.466-2.361 2.503-13.024 2.486l-9.673-.015-1.336-1.233c-5.162-4.767-5.215-5.111-5.27-34.234-.056-29.317-.122-28.801 3.758-29.561 2.491-.488 21.428-.526 23.947-.048" fill="#decbde"/><path d="M267.4 95.083c-.507.094-1.312 1.111-2.2 2.781-1.262 2.374-4.722 6.136-5.643 6.136-1.181 0-.009.842 1.943 1.396 1.265.36 3.2.981 4.3 1.381 1.617.588 3.84.782 11.6 1.014 10.585.317 11.092.427 13.495 2.922 1.565 1.626 4.305 6.518 4.305 7.687 0 .403.151.793.336.867.185.073.961 1.027 1.724 2.12 1.795 2.569 1.493 2.519 16.54 2.735 13.293.19 14.339.329 18.499 2.449 2.159 1.101 4.329 3.089 4.731 4.336.27.835 2.459 2.019 4.972 2.688 3.515.935 6.398 4.082 6.398 6.983 0 1.481 1.594 4.112 3.092 5.103 6.679 4.42 6.558 17.819-.189 20.803-1.1.487-1.758 1.061-1.872 1.633-.097.486-.386 2.05-.642 3.476-1.706 9.499-4.972 12.249-16.861 14.192-1.173.192-1.751.63-2.851 2.161-.759 1.057-2.244 2.428-3.3 3.046l-1.919 1.125-9.829-.081c-12.674-.105-13.324-.423-16.147-7.903-.866-2.296-.883-2.76-1.108-29.533-.243-29.097-.418-31.556-1.98-27.786-1.403 3.387-4.146 4.032-17.132 4.026-10.378-.004-13.262.312-13.262 1.453 0 .312-.705 2.399-1.567 4.637l-1.567 4.07.149 31c.082 17.05.145 33.7.139 37-.005 3.3.187 7.916.427 10.257.318 3.093.316 6.319-.007 11.8-.659 11.168-.941 61.059-.385 67.943l.453 5.6-1.061 2.6c-.583 1.43-1.215 2.789-1.403 3.02-.948 1.162-.9 3.735.074 3.963 5.347 1.254 7.817 1.417 21.552 1.417h14.204l.596-.9c.516-.78.623-6.972.796-46.3.222-50.293.05-47.177 2.76-50.136 2.323-2.536 1.449-2.438 24.44-2.734 26.68-.344 27.894-.482 30.604-3.482.785-.869 2.096-1.916 2.912-2.326.816-.41 1.985-1.08 2.597-1.488 1.125-.751 5.815-2.19 7.287-2.236 1.252-.039 2.483-1.314 3.03-3.139.667-2.227 2.729-4.27 5.194-5.144 2.509-.89 2.867-1.455 3.717-5.852.829-4.283 2.479-7.701 4.532-9.385 4.311-3.537 4.122-2.495 4.125-22.809.003-24.958-.326-27.778-3.422-29.324-2.542-1.269-4.4-3.531-4.995-6.08-.265-1.136-.82-2.82-1.232-3.743-.412-.923-.749-1.859-.749-2.08 0-.531-5.247-5.642-5.792-5.642-.233 0-1.267-.675-2.299-1.5s-2.462-1.86-3.177-2.3c-.716-.44-1.977-1.695-2.804-2.79-1.68-2.226-2.796-2.751-6.728-3.165-1.43-.151-3.86-.622-5.4-1.045-1.54-.424-3.804-1.044-5.031-1.377-1.227-.333-2.923-1.075-3.769-1.649-.846-.574-2.992-1.611-4.769-2.305l-3.231-1.262-30-.066c-16.5-.036-31.44-.142-33.2-.235-1.76-.094-3.56-.104-4-.023m67.2 5.885c6.456 1.62 16.604 3.025 21.942 3.038 2.947.007 3.27.184 3.656 1.994.706 3.314 2.641 5.283 5.907 6.014 2.671.597 3.54 1.315 4.43 3.661.821 2.162 3.219 4.519 4.992 4.909 1.705.374 2.101 1.014 2.47 3.993.46 3.705 1.663 6 3.541 6.751.832.333 1.702 1.041 1.951 1.587.247.543 1.048 1.669 1.78 2.502l1.331 1.516.126 20.279c.137 21.971.172 21.588-1.981 21.588-3.975 0-6.184 4.404-6.956 13.868l-.267 3.268-2.061.276c-4.286.575-6.108 2.174-6.529 5.732-.326 2.756-.307 2.742-4.535 3.216-8.998 1.01-12.251 2.664-13.832 7.035-.644 1.778-1.122 1.817-26.365 2.132-26.967.337-25.818.128-27.52 5.029-.294.848-.503 16.029-.656 47.711-.123 25.557-.349 46.591-.501 46.743-.391.391-28.603.458-30.421.072-1.429-.303-1.472-.358-.932-1.2 1.535-2.397 1.527-1.904 1.482-88.082l-.044-83.6 1.093-4.728 1.092-4.728 2.803.154c1.806.099 3.534.486 4.856 1.087l2.052.933 4.548-1.032c2.501-.568 6.143-1.128 8.093-1.243 2.193-.13 3.903-.445 4.483-.824 1.368-.897 1.355-1.152 1.503 28.181.189 37.535-1.061 35.07 17.869 35.227 13.474.112 15.829-.472 17.461-4.327.302-.715.701-1.3.886-1.3.185 0 .813-.442 1.395-.982.822-.761 1.933-1.125 4.959-1.622 8.173-1.344 9.147-2.239 10.51-9.658.811-4.41 2.436-7.138 4.964-8.326 3.312-1.558 4.552-7.24 3.48-15.948-.698-5.678-2.146-7.862-6.055-9.137-1.954-.638-1.761-.254-2.798-5.582-.596-3.06-2.93-4.745-6.576-4.745-1.702 0-2.396-.648-2.998-2.8-1.451-5.186-4.648-6.07-22.826-6.307-13.947-.182-14.19-.218-14.623-2.188-.641-2.92-1.992-4.848-5.013-7.151-.972-.742-1.517-1.592-1.873-2.924-1.143-4.271-3.145-5.035-14.293-5.459-16.414-.623-15.589-.494-14.013-2.195.568-.613 1.137-1.533 1.266-2.045.277-1.105.146-1.085 2.074-.314 2.841 1.137 6.733 1.26 15.732.498 16.708-1.417 44.248-1.724 48.941-.547" fill="#eed7ed"/><path d="M303.4 100.495c-5.06.163-13.043.621-17.741 1.02-8.999.762-12.891.639-15.732-.498-1.928-.771-1.797-.791-2.074.314-.129.512-.698 1.432-1.266 2.045-1.576 1.701-2.401 1.572 14.013 2.195 11.148.424 13.15 1.188 14.293 5.459.356 1.332.901 2.182 1.873 2.924 3.021 2.303 4.372 4.231 5.013 7.151.433 1.97.676 2.006 14.623 2.188 18.178.237 21.375 1.121 22.826 6.307.602 2.152 1.296 2.8 2.998 2.8 3.646 0 5.98 1.685 6.576 4.745 1.037 5.328.844 4.944 2.798 5.582 3.909 1.275 5.357 3.459 6.055 9.137 1.072 8.708-.168 14.39-3.48 15.948-2.528 1.188-4.153 3.916-4.964 8.326-1.363 7.419-2.337 8.314-10.51 9.658-3.026.497-4.137.861-4.959 1.622-.582.54-1.21.982-1.395.982-.185 0-.584.585-.886 1.3-1.632 3.855-3.987 4.439-17.461 4.327-18.93-.157-17.68 2.308-17.869-35.227-.148-29.333-.135-29.078-1.503-28.181-.58.379-2.29.694-4.483.824-1.95.115-5.592.675-8.093 1.243l-4.548 1.032-2.052-.933c-1.322-.601-3.05-.988-4.856-1.087l-2.803-.154-1.092 4.728-1.093 4.728.044 83.6c.045 86.178.053 85.685-1.482 88.082-.54.842-.497.897.932 1.2 1.818.386 30.03.319 30.421-.072.152-.152.378-21.186.501-46.743.153-31.682.362-46.863.656-47.711 1.702-4.901.553-4.692 27.52-5.029 25.243-.315 25.721-.354 26.365-2.132 1.581-4.371 4.834-6.025 13.832-7.035 4.228-.474 4.209-.46 4.535-3.216.421-3.558 2.243-5.157 6.529-5.732l2.061-.276.267-3.268c.772-9.464 2.981-13.868 6.956-13.868 2.153 0 2.118.383 1.981-21.588l-.126-20.279-1.331-1.516c-.732-.833-1.533-1.959-1.78-2.502-.249-.546-1.119-1.254-1.951-1.587-1.878-.751-3.081-3.046-3.541-6.751-.369-2.979-.765-3.619-2.47-3.993-1.773-.39-4.171-2.747-4.992-4.909-.89-2.346-1.759-3.064-4.43-3.661-3.266-.731-5.201-2.7-5.907-6.014-.386-1.81-.709-1.987-3.656-1.994-5.338-.013-15.486-1.418-21.942-3.038-2.86-.717-16.937-.931-31.2-.473" fill="#fffbff"/></g></svg>